  0
SECTION
  2
HEADER
  9
$ACADVER
  1
AC1018
  9
$ACADMAINTVER
 70
     0
  9
$DWGCODEPAGE
  3
ANSI_1252
  9
$INSBASE
 10
0.0
 20
0.0
 30
0.0
  9
$EXTMIN
 10
0.0000055041216811
 20
-0.0000000000001137
 30
0.0
  9
$EXTMAX
 10
373.0000056257684
 20
290.4999999999999
 30
0.0
  9
$LIMMIN
 10
0.0
 20
0.0
  9
$LIMMAX
 10
12.0
 20
9.0
  9
$ORTHOMODE
 70
     0
  9
$REGENMODE
 70
     1
  9
$FILLMODE
 70
     1
  9
$QTEXTMODE
 70
     0
  9
$MIRRTEXT
 70
     1
  9
$LTSCALE
 40
1.0
  9
$ATTMODE
 70
     1
  9
$TEXTSIZE
 40
0.2
  9
$TRACEWID
 40
0.05
  9
$TEXTSTYLE
  7
Standard
  9
$CLAYER
  8
0
  9
$CELTYPE
  6
ByLayer
  9
$CECOLOR
 62
   256
  9
$CELTSCALE
 40
1.0
  9
$DISPSILH
 70
     0
  9
$DIMSCALE
 40
1.0
  9
$DIMASZ
 40
0.18
  9
$DIMEXO
 40
0.0625
  9
$DIMDLI
 40
0.38
  9
$DIMRND
 40
0.0
  9
$DIMDLE
 40
0.0
  9
$DIMEXE
 40
0.18
  9
$DIMTP
 40
0.0
  9
$DIMTM
 40
0.0
  9
$DIMTXT
 40
0.18
  9
$DIMCEN
 40
0.09
  9
$DIMTSZ
 40
0.0
  9
$DIMTOL
 70
     0
  9
$DIMLIM
 70
     0
  9
$DIMTIH
 70
     1
  9
$DIMTOH
 70
     1
  9
$DIMSE1
 70
     0
  9
$DIMSE2
 70
     0
  9
$DIMTAD
 70
     0
  9
$DIMZIN
 70
     0
  9
$DIMBLK
  1

  9
$DIMASO
 70
     1
  9
$DIMSHO
 70
     1
  9
$DIMPOST
  1

  9
$DIMAPOST
  1

  9
$DIMALT
 70
     0
  9
$DIMALTD
 70
     2
  9
$DIMALTF
 40
25.4
  9
$DIMLFAC
 40
1.0
  9
$DIMTOFL
 70
     0
  9
$DIMTVP
 40
0.0
  9
$DIMTIX
 70
     0
  9
$DIMSOXD
 70
     0
  9
$DIMSAH
 70
     0
  9
$DIMBLK1
  1

  9
$DIMBLK2
  1

  9
$DIMSTYLE
  2
Standard
  9
$DIMCLRD
 70
     0
  9
$DIMCLRE
 70
     0
  9
$DIMCLRT
 70
     0
  9
$DIMTFAC
 40
1.0
  9
$DIMGAP
 40
0.09
  9
$DIMJUST
 70
     0
  9
$DIMSD1
 70
     0
  9
$DIMSD2
 70
     0
  9
$DIMTOLJ
 70
     1
  9
$DIMTZIN
 70
     0
  9
$DIMALTZ
 70
     0
  9
$DIMALTTZ
 70
     0
  9
$DIMUPT
 70
     0
  9
$DIMDEC
 70
     4
  9
$DIMTDEC
 70
     4
  9
$DIMALTU
 70
     2
  9
$DIMALTTD
 70
     2
  9
$DIMTXSTY
  7
Standard
  9
$DIMAUNIT
 70
     0
  9
$DIMADEC
 70
     0
  9
$DIMALTRND
 40
0.0
  9
$DIMAZIN
 70
     0
  9
$DIMDSEP
 70
    46
  9
$DIMATFIT
 70
     3
  9
$DIMFRAC
 70
     0
  9
$DIMLDRBLK
  1

  9
$DIMLUNIT
 70
     2
  9
$DIMLWD
 70
    -2
  9
$DIMLWE
 70
    -2
  9
$DIMTMOVE
 70
     2
  9
$LUNITS
 70
     2
  9
$LUPREC
 70
     3
  9
$SKETCHINC
 40
0.1
  9
$FILLETRAD
 40
0.5
  9
$AUNITS
 70
     0
  9
$AUPREC
 70
     0
  9
$MENU
  1
.
  9
$ELEVATION
 40
0.0
  9
$PELEVATION
 40
0.0
  9
$THICKNESS
 40
0.0
  9
$LIMCHECK
 70
     0
  9
$CHAMFERA
 40
0.5
  9
$CHAMFERB
 40
0.5
  9
$CHAMFERC
 40
1.0
  9
$CHAMFERD
 40
0.0
  9
$SKPOLY
 70
     0
  9
$TDCREATE
 40
2457058.091752361
  9
$TDUCREATE
 40
2457058.050085695
  9
$TDUPDATE
 40
2457058.091765058
  9
$TDUUPDATE
 40
2457058.050098391
  9
$TDINDWG
 40
0.0000000116
  9
$TDUSRTIMER
 40
0.0000000116
  9
$USRTIMER
 70
     1
  9
$ANGBASE
 50
0.0
  9
$ANGDIR
 70
     0
  9
$PDMODE
 70
     0
  9
$PDSIZE
 40
0.0
  9
$PLINEWID
 40
0.0
  9
$SPLFRAME
 70
     0
  9
$SPLINETYPE
 70
     6
  9
$SPLINESEGS
 70
     8
  9
$HANDSEED
  5
1E7
  9
$SURFTAB1
 70
     6
  9
$SURFTAB2
 70
     6
  9
$SURFTYPE
 70
     6
  9
$SURFU
 70
     6
  9
$SURFV
 70
     6
  9
$UCSBASE
  2

  9
$UCSNAME
  2

  9
$UCSORG
 10
0.0
 20
0.0
 30
0.0
  9
$UCSXDIR
 10
1.0
 20
0.0
 30
0.0
  9
$UCSYDIR
 10
0.0
 20
1.0
 30
0.0
  9
$UCSORTHOREF
  2

  9
$UCSORTHOVIEW
 70
     0
  9
$UCSORGTOP
 10
0.0
 20
0.0
 30
0.0
  9
$UCSORGBOTTOM
 10
0.0
 20
0.0
 30
0.0
  9
$UCSORGLEFT
 10
0.0
 20
0.0
 30
0.0
  9
$UCSORGRIGHT
 10
0.0
 20
0.0
 30
0.0
  9
$UCSORGFRONT
 10
0.0
 20
0.0
 30
0.0
  9
$UCSORGBACK
 10
0.0
 20
0.0
 30
0.0
  9
$PUCSBASE
  2

  9
$PUCSNAME
  2

  9
$PUCSORG
 10
0.0
 20
0.0
 30
0.0
  9
$PUCSXDIR
 10
1.0
 20
0.0
 30
0.0
  9
$PUCSYDIR
 10
0.0
 20
1.0
 30
0.0
  9
$PUCSORTHOREF
  2

  9
$PUCSORTHOVIEW
 70
     0
  9
$PUCSORGTOP
 10
0.0
 20
0.0
 30
0.0
  9
$PUCSORGBOTTOM
 10
0.0
 20
0.0
 30
0.0
  9
$PUCSORGLEFT
 10
0.0
 20
0.0
 30
0.0
  9
$PUCSORGRIGHT
 10
0.0
 20
0.0
 30
0.0
  9
$PUCSORGFRONT
 10
0.0
 20
0.0
 30
0.0
  9
$PUCSORGBACK
 10
0.0
 20
0.0
 30
0.0
  9
$USERI1
 70
     0
  9
$USERI2
 70
     0
  9
$USERI3
 70
     0
  9
$USERI4
 70
     0
  9
$USERI5
 70
     0
  9
$USERR1
 40
0.0
  9
$USERR2
 40
0.0
  9
$USERR3
 40
0.0
  9
$USERR4
 40
0.0
  9
$USERR5
 40
0.0
  9
$WORLDVIEW
 70
     1
  9
$SHADEDGE
 70
     3
  9
$SHADEDIF
 70
    70
  9
$TILEMODE
 70
     1
  9
$MAXACTVP
 70
    64
  9
$PINSBASE
 10
0.0
 20
0.0
 30
0.0
  9
$PLIMCHECK
 70
     0
  9
$PEXTMIN
 10
1.000000000000000E+20
 20
1.000000000000000E+20
 30
1.000000000000000E+20
  9
$PEXTMAX
 10
-1.000000000000000E+20
 20
-1.000000000000000E+20
 30
-1.000000000000000E+20
  9
$PLIMMIN
 10
0.0
 20
0.0
  9
$PLIMMAX
 10
12.0
 20
9.0
  9
$UNITMODE
 70
     0
  9
$VISRETAIN
 70
     1
  9
$PLINEGEN
 70
     0
  9
$PSLTSCALE
 70
     1
  9
$TREEDEPTH
 70
  3020
  9
$CMLSTYLE
  2
Standard
  9
$CMLJUST
 70
     0
  9
$CMLSCALE
 40
1.0
  9
$PROXYGRAPHICS
 70
     1
  9
$MEASUREMENT
 70
     0
  9
$CELWEIGHT
370
    -1
  9
$ENDCAPS
280
     0
  9
$JOINSTYLE
280
     0
  9
$LWDISPLAY
290
     0
  9
$INSUNITS
 70
     4
  9
$HYPERLINKBASE
  1

  9
$STYLESHEET
  1

  9
$XEDIT
290
     1
  9
$CEPSNTYPE
380
     0
  9
$PSTYLEMODE
290
     1
  9
$FINGERPRINTGUID
  2
{EC1CC437-6598-418E-842E-2972CB99B1E9}
  9
$VERSIONGUID
  2
{FAEB1C32-E019-11D5-929B-00C0DF256EC4}
  9
$EXTNAMES
290
     1
  9
$PSVPSCALE
 40
0.0
  9
$OLESTARTUP
290
     0
  9
$SORTENTS
280
   127
  9
$INDEXCTL
280
     0
  9
$HIDETEXT
280
     1
  9
$XCLIPFRAME
290
     0
  9
$HALOGAP
280
     0
  9
$OBSCOLOR
 70
   257
  9
$OBSLTYPE
280
     0
  9
$INTERSECTIONDISPLAY
280
     0
  9
$INTERSECTIONCOLOR
 70
   257
  9
$DIMASSOC
280
     2
  9
$PROJECTNAME
  1

  0
ENDSEC
  0
SECTION
  2
CLASSES
  0
CLASS
  1
ACDBDICTIONARYWDFLT
  2
AcDbDictionaryWithDefault
  3
ObjectDBX Classes
 90
        0
 91
        4
280
     0
281
     0
  0
CLASS
  1
VISUALSTYLE
  2
AcDbVisualStyle
  3
ObjectDBX Classes
 90
     4095
 91
        4
280
     0
281
     0
  0
CLASS
  1
MATERIAL
  2
AcDbMaterial
  3
ObjectDBX Classes
 90
     1153
 91
        4
280
     0
281
     0
  0
CLASS
  1
SUN
  2
AcDbSun
  3
SCENEOE
 90
     1024
 91
        4
280
     0
281
     0
  0
ENDSEC
  0
SECTION
  2
TABLES
  0
TABLE
  2
VPORT
  5
8
330
0
100
AcDbSymbolTable
 70
     1
  0
VPORT
  5
29
330
8
100
AcDbSymbolTableRecord
100
AcDbViewportTableRecord
  2
*Active
 70
     0
 10
0.0
 20
0.0
 11
1.0
 21
1.0
 12
186.500005564945
 22
145.2499999999999
 13
0.0
 23
0.0
 14
0.5
 24
0.5
 15
0.5
 25
0.5
 16
0.0
 26
0.0
 36
1.0
 17
0.0
 27
0.0
 37
0.0
 40
296.3100000000001
 41
1.283993115737166
 42
50.0
 43
0.0
 44
0.0
 50
0.0
 51
0.0
 71
     0
 72
   100
 73
     1
 74
     3
 75
     0
 76
     0
 77
     0
 78
     0
281
     0
 65
     1
110
0.0
120
0.0
130
0.0
111
1.0
121
0.0
131
0.0
112
0.0
122
1.0
132
0.0
 79
     0
146
0.0
  0
ENDTAB
  0
TABLE
  2
LTYPE
  5
5
330
0
100
AcDbSymbolTable
 70
     1
  0
LTYPE
  5
14
330
5
100
AcDbSymbolTableRecord
100
AcDbLinetypeTableRecord
  2
ByBlock
 70
     0
  3

 72
    65
 73
     0
 40
0.0
  0
LTYPE
  5
15
330
5
100
AcDbSymbolTableRecord
100
AcDbLinetypeTableRecord
  2
ByLayer
 70
     0
  3

 72
    65
 73
     0
 40
0.0
  0
LTYPE
  5
16
330
5
100
AcDbSymbolTableRecord
100
AcDbLinetypeTableRecord
  2
Continuous
 70
     0
  3
Solid line
 72
    65
 73
     0
 40
0.0
  0
ENDTAB
  0
TABLE
  2
LAYER
  5
2
330
0
100
AcDbSymbolTable
 70
     3
  0
LAYER
  5
10
330
2
100
AcDbSymbolTableRecord
100
AcDbLayerTableRecord
  2
0
 70
     0
 62
     7
  6
Continuous
370
    -3
390
F
  0
LAYER
  5
40
330
2
100
AcDbSymbolTableRecord
100
AcDbLayerTableRecord
  2
Cutout
 70
     0
 62
     3
420
    65280
  6
Continuous
370
    -3
390
F
  0
LAYER
  5
44
330
2
100
AcDbSymbolTableRecord
100
AcDbLayerTableRecord
  2
Pockets 8mm deep
 70
     0
 62
     4
420
    65535
  6
Continuous
370
    -3
390
F
  0
ENDTAB
  0
TABLE
  2
STYLE
  5
3
330
0
100
AcDbSymbolTable
 70
     1
  0
STYLE
  5
11
330
3
100
AcDbSymbolTableRecord
100
AcDbTextStyleTableRecord
  2
Standard
 70
     0
 40
0.0
 41
1.0
 50
0.0
 71
     0
 42
0.2
  3
txt
  4

  0
ENDTAB
  0
TABLE
  2
VIEW
  5
6
330
0
100
AcDbSymbolTable
 70
     0
  0
ENDTAB
  0
TABLE
  2
UCS
  5
7
330
0
100
AcDbSymbolTable
 70
     0
  0
ENDTAB
  0
TABLE
  2
APPID
  5
9
330
0
100
AcDbSymbolTable
 70
     1
  0
APPID
  5
12
330
9
100
AcDbSymbolTableRecord
100
AcDbRegAppTableRecord
  2
ACAD
 70
     0
  0
ENDTAB
  0
TABLE
  2
DIMSTYLE
  5
A
330
0
100
AcDbSymbolTable
 70
     1
100
AcDbDimStyleTable
  0
DIMSTYLE
105
27
330
A
100
AcDbSymbolTableRecord
100
AcDbDimStyleTableRecord
  2
Standard
 70
     0
178
     0
340
11
  0
ENDTAB
  0
TABLE
  2
BLOCK_RECORD
  5
1
330
0
100
AcDbSymbolTable
 70
     1
  0
BLOCK_RECORD
  5
1F
330
1
100
AcDbSymbolTableRecord
100
AcDbBlockTableRecord
  2
*Model_Space
340
22
  0
BLOCK_RECORD
  5
1B
330
1
100
AcDbSymbolTableRecord
100
AcDbBlockTableRecord
  2
*Paper_Space
340
1E
  0
BLOCK_RECORD
  5
23
330
1
100
AcDbSymbolTableRecord
100
AcDbBlockTableRecord
  2
*Paper_Space0
340
26
  0
ENDTAB
  0
ENDSEC
  0
SECTION
  2
BLOCKS
  0
BLOCK
  5
20
330
1F
100
AcDbEntity
  8
0
100
AcDbBlockBegin
  2
*Model_Space
 70
     0
 10
0.0
 20
0.0
 30
0.0
  3
*Model_Space
  1

  0
ENDBLK
  5
21
330
1F
100
AcDbEntity
  8
0
100
AcDbBlockEnd
  0
BLOCK
  5
1C
330
1B
100
AcDbEntity
 67
     1
  8
0
100
AcDbBlockBegin
  2
*Paper_Space
 70
     0
 10
0.0
 20
0.0
 30
0.0
  3
*Paper_Space
  1

  0
ENDBLK
  5
1D
330
1B
100
AcDbEntity
 67
     1
  8
0
100
AcDbBlockEnd
  0
BLOCK
  5
24
330
23
100
AcDbEntity
  8
0
100
AcDbBlockBegin
  2
*Paper_Space0
 70
     0
 10
0.0
 20
0.0
 30
0.0
  3
*Paper_Space0
  1

  0
ENDBLK
  5
25
330
23
100
AcDbEntity
  8
0
100
AcDbBlockEnd
  0
ENDSEC
  0
SECTION
  2
ENTITIES
  0
SPLINE
  5
41
330
1F
100
AcDbEntity
  8
Cutout
100
AcDbSpline
210
0.0
220
0.0
230
1.0
 70
    12
 71
     2
 72
    14
 73
    11
 74
     0
 42
0.0000000001
 43
0.0000000001
 12
1.0
 22
0.0
 32
0.0
 13
1.0
 23
0.0
 33
0.0
 40
0.5987257147978122
 40
0.5987257147978122
 40
0.5987257147978122
 40
198.2313295872993
 40
198.2313295872993
 40
295.1245370116225
 40
295.1245370116225
 40
542.6946329760543
 40
542.6946329760543
 40
639.5878404003773
 40
639.5878404003773
 40
891.325783199618
 40
891.325783199618
 40
891.325783199618
 10
64.90802922420133
 20
0.0
 30
0.0
 41
1.0
 10
183.4540174249849
 20
0.0
 30
0.0
 41
1.0
 10
302.0000056257684
 20
0.0
 30
0.0
 41
1.0
 10
373.0000056257692
 20
0.0000000000000402
 30
0.0
 41
0.7071067811865476
 10
373.0000056257684
 20
71.0
 30
0.0
 41
1.0
 10
373.0000056257684
 20
145.25
 30
0.0
 41
1.0
 10
373.0000056257684
 20
219.5
 30
0.0
 41
1.0
 10
373.0000056257692
 20
290.4999999999999
 30
0.0
 41
0.7071067811865476
 10
302.0000056257684
 20
290.4999999999999
 30
0.0
 41
1.0
 10
151.000005564945
 20
290.4999999999999
 30
0.0
 41
1.0
 10
0.0000055041216811
 20
290.4999999999999
 30
0.0
 41
1.0
  0
LINE
  5
42
330
1F
100
AcDbEntity
  8
Cutout
100
AcDbLine
 10
0.0000055041216811
 20
290.4999999999999
 30
0.0
 11
0.0000058681396595
 21
94.64675442467092
 31
0.0
  0
SPLINE
  5
43
330
1F
100
AcDbEntity
  8
Cutout
100
AcDbSpline
210
0.0
220
0.0
230
1.0
 70
    12
 71
     2
 72
    16
 73
    13
 74
     0
 42
0.0000000001
 43
0.0000000001
 12
1.0
 22
0.0
 32
0.0
 13
1.0
 23
0.0
 33
0.0
 40
-79.85214685600491
 40
-79.85214685600491
 40
-79.85214685600491
 40
-76.81486855311736
 40
-76.81486855311736
 40
-75.97539058678598
 40
-75.97539058678598
 40
-67.24044737392694
 40
-67.24044737392694
 40
-66.44009319875468
 40
-66.44009319875468
 40
-57.38278169929279
 40
-57.38278169929279
 40
-56.54524954181559
 40
-56.54524954181559
 40
-56.54524954181559
 10
0.0000058681397101
 20
94.64675442467087
 30
0.0
 41
0.9840695829755386
 10
1.526805029361077
 20
94.64675433000866
 30
0.0
 41
0.9840695867736453
 10
3.00495874295374
 20
94.26442441208451
 30
0.0
 41
1.0
 10
22.4343141262705
 20
89.23894987536119
 30
0.0
 41
1.0
 10
41.86366950958544
 20
84.21347533863855
 30
0.0
 41
1.0
 10
46.2891427126788
 20
83.06881034814762
 30
0.0
 41
0.9344959187679676
 10
48.83148760232033
 20
79.26992189573843
 30
0.0
 41
1.0
 10
59.23025396466964
 20
63.73160779281511
 30
0.0
 41
1.0
 10
69.62902032701803
 20
48.19329368989349
 30
0.0
 41
1.0
 10
72.27455438398084
 20
44.24021524629042
 30
0.0
 41
0.9296303185002963
 10
71.49327288447037
 20
39.54817103866139
 30
0.0
 41
1.0
 10
68.20065105433494
 20
19.77408551933013
 30
0.0
 41
1.0
 10
64.90802922420042
 20
-0.0000000000001137
 30
0.0
 41
1.0
  0
POLYLINE
  5
45
330
1F
100
AcDbEntity
  8
Pockets 8mm deep
100
AcDb2dPolyline
 66
     1
 10
0.0
 20
0.0
 30
0.0
  0
VERTEX
  5
46
330
45
100
AcDbEntity
  8
Pockets 8mm deep
100
AcDbVertex
100
AcDb2dVertex
 10
25.50076122333045
 20
242.5674282165764
 30
0.0
  0
VERTEX
  5
47
330
45
100
AcDbEntity
  8
Pockets 8mm deep
100
AcDbVertex
100
AcDb2dVertex
 10
70.50076122333044
 20
242.5674282165764
 30
0.0
  0
VERTEX
  5
48
330
45
100
AcDbEntity
  8
Pockets 8mm deep
100
AcDbVertex
100
AcDb2dVertex
 10
70.50076122333044
 20
252.5674282165764
 30
0.0
  0
VERTEX
  5
49
330
45
100
AcDbEntity
  8
Pockets 8mm deep
100
AcDbVertex
100
AcDb2dVertex
 10
25.50076122333045
 20
252.5674282165764
 30
0.0
  0
VERTEX
  5
4A
330
45
100
AcDbEntity
  8
Pockets 8mm deep
100
AcDbVertex
100
AcDb2dVertex
 10
25.50076122333045
 20
242.5674282165764
 30
0.0
  0
SEQEND
  5
4B
330
45
100
AcDbEntity
  8
Pockets 8mm deep
  0
POLYLINE
  5
4C
330
1F
100
AcDbEntity
  8
Pockets 8mm deep
100
AcDb2dPolyline
 66
     1
 10
0.0
 20
0.0
 30
0.0
  0
VERTEX
  5
4D
330
4C
100
AcDbEntity
  8
Pockets 8mm deep
100
AcDbVertex
100
AcDb2dVertex
 10
25.50076122333045
 20
213.5674282165765
 30
0.0
  0
VERTEX
  5
4E
330
4C
100
AcDbEntity
  8
Pockets 8mm deep
100
AcDbVertex
100
AcDb2dVertex
 10
70.50076122333044
 20
213.5674282165765
 30
0.0
  0
VERTEX
  5
4F
330
4C
100
AcDbEntity
  8
Pockets 8mm deep
100
AcDbVertex
100
AcDb2dVertex
 10
70.50076122333044
 20
223.5674282165765
 30
0.0
  0
VERTEX
  5
50
330
4C
100
AcDbEntity
  8
Pockets 8mm deep
100
AcDbVertex
100
AcDb2dVertex
 10
25.50076122333045
 20
223.5674282165765
 30
0.0
  0
VERTEX
  5
51
330
4C
100
AcDbEntity
  8
Pockets 8mm deep
100
AcDbVertex
100
AcDb2dVertex
 10
25.50076122333045
 20
213.5674282165765
 30
0.0
  0
SEQEND
  5
52
330
4C
100
AcDbEntity
  8
Pockets 8mm deep
  0
POLYLINE
  5
53
330
1F
100
AcDbEntity
  8
Pockets 8mm deep
100
AcDb2dPolyline
 66
     1
 10
0.0
 20
0.0
 30
0.0
  0
VERTEX
  5
54
330
53
100
AcDbEntity
  8
Pockets 8mm deep
100
AcDbVertex
100
AcDb2dVertex
 10
25.50076122333045
 20
184.5674282165765
 30
0.0
  0
VERTEX
  5
55
330
53
100
AcDbEntity
  8
Pockets 8mm deep
100
AcDbVertex
100
AcDb2dVertex
 10
70.50076122333044
 20
184.5674282165765
 30
0.0
  0
VERTEX
  5
56
330
53
100
AcDbEntity
  8
Pockets 8mm deep
100
AcDbVertex
100
AcDb2dVertex
 10
70.50076122333044
 20
194.5674282165765
 30
0.0
  0
VERTEX
  5
57
330
53
100
AcDbEntity
  8
Pockets 8mm deep
100
AcDbVertex
100
AcDb2dVertex
 10
25.50076122333045
 20
194.5674282165765
 30
0.0
  0
VERTEX
  5
58
330
53
100
AcDbEntity
  8
Pockets 8mm deep
100
AcDbVertex
100
AcDb2dVertex
 10
25.50076122333045
 20
184.5674282165765
 30
0.0
  0
SEQEND
  5
59
330
53
100
AcDbEntity
  8
Pockets 8mm deep
  0
POLYLINE
  5
5A
330
1F
100
AcDbEntity
  8
Pockets 8mm deep
100
AcDb2dPolyline
 66
     1
 10
0.0
 20
0.0
 30
0.0
  0
VERTEX
  5
5B
330
5A
100
AcDbEntity
  8
Pockets 8mm deep
100
AcDbVertex
100
AcDb2dVertex
 10
25.50076122333045
 20
155.5674282165765
 30
0.0
  0
VERTEX
  5
5C
330
5A
100
AcDbEntity
  8
Pockets 8mm deep
100
AcDbVertex
100
AcDb2dVertex
 10
70.50076122333044
 20
155.5674282165765
 30
0.0
  0
VERTEX
  5
5D
330
5A
100
AcDbEntity
  8
Pockets 8mm deep
100
AcDbVertex
100
AcDb2dVertex
 10
70.50076122333044
 20
165.5674282165765
 30
0.0
  0
VERTEX
  5
5E
330
5A
100
AcDbEntity
  8
Pockets 8mm deep
100
AcDbVertex
100
AcDb2dVertex
 10
25.50076122333045
 20
165.5674282165765
 30
0.0
  0
VERTEX
  5
5F
330
5A
100
AcDbEntity
  8
Pockets 8mm deep
100
AcDbVertex
100
AcDb2dVertex
 10
25.50076122333045
 20
155.5674282165765
 30
0.0
  0
SEQEND
  5
60
330
5A
100
AcDbEntity
  8
Pockets 8mm deep
  0
POLYLINE
  5
61
330
1F
100
AcDbEntity
  8
Pockets 8mm deep
100
AcDb2dPolyline
 66
     1
 10
0.0
 20
0.0
 30
0.0
  0
VERTEX
  5
62
330
61
100
AcDbEntity
  8
Pockets 8mm deep
100
AcDbVertex
100
AcDb2dVertex
 10
25.50076122333045
 20
126.5674282165765
 30
0.0
  0
VERTEX
  5
63
330
61
100
AcDbEntity
  8
Pockets 8mm deep
100
AcDbVertex
100
AcDb2dVertex
 10
70.50076122333044
 20
126.5674282165765
 30
0.0
  0
VERTEX
  5
64
330
61
100
AcDbEntity
  8
Pockets 8mm deep
100
AcDbVertex
100
AcDb2dVertex
 10
70.50076122333044
 20
136.5674282165765
 30
0.0
  0
VERTEX
  5
65
330
61
100
AcDbEntity
  8
Pockets 8mm deep
100
AcDbVertex
100
AcDb2dVertex
 10
25.50076122333045
 20
136.5674282165765
 30
0.0
  0
VERTEX
  5
66
330
61
100
AcDbEntity
  8
Pockets 8mm deep
100
AcDbVertex
100
AcDb2dVertex
 10
25.50076122333045
 20
126.5674282165765
 30
0.0
  0
SEQEND
  5
67
330
61
100
AcDbEntity
  8
Pockets 8mm deep
  0
POLYLINE
  5
68
330
1F
100
AcDbEntity
  8
Pockets 8mm deep
100
AcDb2dPolyline
 66
     1
 10
0.0
 20
0.0
 30
0.0
  0
VERTEX
  5
69
330
68
100
AcDbEntity
  8
Pockets 8mm deep
100
AcDbVertex
100
AcDb2dVertex
 10
25.50076122333045
 20
97.5674282165765
 30
0.0
  0
VERTEX
  5
6A
330
68
100
AcDbEntity
  8
Pockets 8mm deep
100
AcDbVertex
100
AcDb2dVertex
 10
70.50076122333044
 20
97.5674282165765
 30
0.0
  0
VERTEX
  5
6B
330
68
100
AcDbEntity
  8
Pockets 8mm deep
100
AcDbVertex
100
AcDb2dVertex
 10
70.50076122333044
 20
107.5674282165765
 30
0.0
  0
VERTEX
  5
6C
330
68
100
AcDbEntity
  8
Pockets 8mm deep
100
AcDbVertex
100
AcDb2dVertex
 10
25.50076122333045
 20
107.5674282165765
 30
0.0
  0
VERTEX
  5
6D
330
68
100
AcDbEntity
  8
Pockets 8mm deep
100
AcDbVertex
100
AcDb2dVertex
 10
25.50076122333045
 20
97.5674282165765
 30
0.0
  0
SEQEND
  5
6E
330
68
100
AcDbEntity
  8
Pockets 8mm deep
  0
POLYLINE
  5
6F
330
1F
100
AcDbEntity
  8
Pockets 8mm deep
100
AcDb2dPolyline
 66
     1
 10
0.0
 20
0.0
 30
0.0
  0
VERTEX
  5
70
330
6F
100
AcDbEntity
  8
Pockets 8mm deep
100
AcDbVertex
100
AcDb2dVertex
 10
80.50076122333044
 20
257.0674282165764
 30
0.0
  0
VERTEX
  5
71
330
6F
100
AcDbEntity
  8
Pockets 8mm deep
100
AcDbVertex
100
AcDb2dVertex
 10
125.5007612233304
 20
257.0674282165764
 30
0.0
  0
VERTEX
  5
72
330
6F
100
AcDbEntity
  8
Pockets 8mm deep
100
AcDbVertex
100
AcDb2dVertex
 10
125.5007612233304
 20
267.0674282165764
 30
0.0
  0
VERTEX
  5
73
330
6F
100
AcDbEntity
  8
Pockets 8mm deep
100
AcDbVertex
100
AcDb2dVertex
 10
80.50076122333044
 20
267.0674282165764
 30
0.0
  0
VERTEX
  5
74
330
6F
100
AcDbEntity
  8
Pockets 8mm deep
100
AcDbVertex
100
AcDb2dVertex
 10
80.50076122333044
 20
257.0674282165764
 30
0.0
  0
SEQEND
  5
75
330
6F
100
AcDbEntity
  8
Pockets 8mm deep
  0
POLYLINE
  5
76
330
1F
100
AcDbEntity
  8
Pockets 8mm deep
100
AcDb2dPolyline
 66
     1
 10
0.0
 20
0.0
 30
0.0
  0
VERTEX
  5
77
330
76
100
AcDbEntity
  8
Pockets 8mm deep
100
AcDbVertex
100
AcDb2dVertex
 10
80.50076122333044
 20
228.0674282165765
 30
0.0
  0
VERTEX
  5
78
330
76
100
AcDbEntity
  8
Pockets 8mm deep
100
AcDbVertex
100
AcDb2dVertex
 10
125.5007612233304
 20
228.0674282165765
 30
0.0
  0
VERTEX
  5
79
330
76
100
AcDbEntity
  8
Pockets 8mm deep
100
AcDbVertex
100
AcDb2dVertex
 10
125.5007612233304
 20
238.0674282165765
 30
0.0
  0
VERTEX
  5
7A
330
76
100
AcDbEntity
  8
Pockets 8mm deep
100
AcDbVertex
100
AcDb2dVertex
 10
80.50076122333044
 20
238.0674282165765
 30
0.0
  0
VERTEX
  5
7B
330
76
100
AcDbEntity
  8
Pockets 8mm deep
100
AcDbVertex
100
AcDb2dVertex
 10
80.50076122333044
 20
228.0674282165765
 30
0.0
  0
SEQEND
  5
7C
330
76
100
AcDbEntity
  8
Pockets 8mm deep
  0
POLYLINE
  5
7D
330
1F
100
AcDbEntity
  8
Pockets 8mm deep
100
AcDb2dPolyline
 66
     1
 10
0.0
 20
0.0
 30
0.0
  0
VERTEX
  5
7E
330
7D
100
AcDbEntity
  8
Pockets 8mm deep
100
AcDbVertex
100
AcDb2dVertex
 10
80.50076122333044
 20
199.0674282165765
 30
0.0
  0
VERTEX
  5
7F
330
7D
100
AcDbEntity
  8
Pockets 8mm deep
100
AcDbVertex
100
AcDb2dVertex
 10
125.5007612233304
 20
199.0674282165765
 30
0.0
  0
VERTEX
  5
80
330
7D
100
AcDbEntity
  8
Pockets 8mm deep
100
AcDbVertex
100
AcDb2dVertex
 10
125.5007612233304
 20
209.0674282165765
 30
0.0
  0
VERTEX
  5
81
330
7D
100
AcDbEntity
  8
Pockets 8mm deep
100
AcDbVertex
100
AcDb2dVertex
 10
80.50076122333044
 20
209.0674282165765
 30
0.0
  0
VERTEX
  5
82
330
7D
100
AcDbEntity
  8
Pockets 8mm deep
100
AcDbVertex
100
AcDb2dVertex
 10
80.50076122333044
 20
199.0674282165765
 30
0.0
  0
SEQEND
  5
83
330
7D
100
AcDbEntity
  8
Pockets 8mm deep
  0
POLYLINE
  5
84
330
1F
100
AcDbEntity
  8
Pockets 8mm deep
100
AcDb2dPolyline
 66
     1
 10
0.0
 20
0.0
 30
0.0
  0
VERTEX
  5
85
330
84
100
AcDbEntity
  8
Pockets 8mm deep
100
AcDbVertex
100
AcDb2dVertex
 10
80.50076122333044
 20
170.0674282165765
 30
0.0
  0
VERTEX
  5
86
330
84
100
AcDbEntity
  8
Pockets 8mm deep
100
AcDbVertex
100
AcDb2dVertex
 10
125.5007612233304
 20
170.0674282165765
 30
0.0
  0
VERTEX
  5
87
330
84
100
AcDbEntity
  8
Pockets 8mm deep
100
AcDbVertex
100
AcDb2dVertex
 10
125.5007612233304
 20
180.0674282165765
 30
0.0
  0
VERTEX
  5
88
330
84
100
AcDbEntity
  8
Pockets 8mm deep
100
AcDbVertex
100
AcDb2dVertex
 10
80.50076122333044
 20
180.0674282165765
 30
0.0
  0
VERTEX
  5
89
330
84
100
AcDbEntity
  8
Pockets 8mm deep
100
AcDbVertex
100
AcDb2dVertex
 10
80.50076122333044
 20
170.0674282165765
 30
0.0
  0
SEQEND
  5
8A
330
84
100
AcDbEntity
  8
Pockets 8mm deep
  0
POLYLINE
  5
8B
330
1F
100
AcDbEntity
  8
Pockets 8mm deep
100
AcDb2dPolyline
 66
     1
 10
0.0
 20
0.0
 30
0.0
  0
VERTEX
  5
8C
330
8B
100
AcDbEntity
  8
Pockets 8mm deep
100
AcDbVertex
100
AcDb2dVertex
 10
80.50076122333044
 20
141.0674282165765
 30
0.0
  0
VERTEX
  5
8D
330
8B
100
AcDbEntity
  8
Pockets 8mm deep
100
AcDbVertex
100
AcDb2dVertex
 10
125.5007612233304
 20
141.0674282165765
 30
0.0
  0
VERTEX
  5
8E
330
8B
100
AcDbEntity
  8
Pockets 8mm deep
100
AcDbVertex
100
AcDb2dVertex
 10
125.5007612233304
 20
151.0674282165765
 30
0.0
  0
VERTEX
  5
8F
330
8B
100
AcDbEntity
  8
Pockets 8mm deep
100
AcDbVertex
100
AcDb2dVertex
 10
80.50076122333044
 20
151.0674282165765
 30
0.0
  0
VERTEX
  5
90
330
8B
100
AcDbEntity
  8
Pockets 8mm deep
100
AcDbVertex
100
AcDb2dVertex
 10
80.50076122333044
 20
141.0674282165765
 30
0.0
  0
SEQEND
  5
91
330
8B
100
AcDbEntity
  8
Pockets 8mm deep
  0
POLYLINE
  5
92
330
1F
100
AcDbEntity
  8
Pockets 8mm deep
100
AcDb2dPolyline
 66
     1
 10
0.0
 20
0.0
 30
0.0
  0
VERTEX
  5
93
330
92
100
AcDbEntity
  8
Pockets 8mm deep
100
AcDbVertex
100
AcDb2dVertex
 10
80.50076122333044
 20
112.0674282165765
 30
0.0
  0
VERTEX
  5
94
330
92
100
AcDbEntity
  8
Pockets 8mm deep
100
AcDbVertex
100
AcDb2dVertex
 10
125.5007612233304
 20
112.0674282165765
 30
0.0
  0
VERTEX
  5
95
330
92
100
AcDbEntity
  8
Pockets 8mm deep
100
AcDbVertex
100
AcDb2dVertex
 10
125.5007612233304
 20
122.0674282165765
 30
0.0
  0
VERTEX
  5
96
330
92
100
AcDbEntity
  8
Pockets 8mm deep
100
AcDbVertex
100
AcDb2dVertex
 10
80.50076122333044
 20
122.0674282165765
 30
0.0
  0
VERTEX
  5
97
330
92
100
AcDbEntity
  8
Pockets 8mm deep
100
AcDbVertex
100
AcDb2dVertex
 10
80.50076122333044
 20
112.0674282165765
 30
0.0
  0
SEQEND
  5
98
330
92
100
AcDbEntity
  8
Pockets 8mm deep
  0
POLYLINE
  5
99
330
1F
100
AcDbEntity
  8
Pockets 8mm deep
100
AcDb2dPolyline
 66
     1
 10
0.0
 20
0.0
 30
0.0
  0
VERTEX
  5
9A
330
99
100
AcDbEntity
  8
Pockets 8mm deep
100
AcDbVertex
100
AcDb2dVertex
 10
80.50076122333044
 20
83.0674282165765
 30
0.0
  0
VERTEX
  5
9B
330
99
100
AcDbEntity
  8
Pockets 8mm deep
100
AcDbVertex
100
AcDb2dVertex
 10
125.5007612233304
 20
83.0674282165765
 30
0.0
  0
VERTEX
  5
9C
330
99
100
AcDbEntity
  8
Pockets 8mm deep
100
AcDbVertex
100
AcDb2dVertex
 10
125.5007612233304
 20
93.0674282165765
 30
0.0
  0
VERTEX
  5
9D
330
99
100
AcDbEntity
  8
Pockets 8mm deep
100
AcDbVertex
100
AcDb2dVertex
 10
80.50076122333044
 20
93.0674282165765
 30
0.0
  0
VERTEX
  5
9E
330
99
100
AcDbEntity
  8
Pockets 8mm deep
100
AcDbVertex
100
AcDb2dVertex
 10
80.50076122333044
 20
83.0674282165765
 30
0.0
  0
SEQEND
  5
9F
330
99
100
AcDbEntity
  8
Pockets 8mm deep
  0
POLYLINE
  5
A0
330
1F
100
AcDbEntity
  8
Pockets 8mm deep
100
AcDb2dPolyline
 66
     1
 10
0.0
 20
0.0
 30
0.0
  0
VERTEX
  5
A1
330
A0
100
AcDbEntity
  8
Pockets 8mm deep
100
AcDbVertex
100
AcDb2dVertex
 10
80.50076122333044
 20
54.0674282165765
 30
0.0
  0
VERTEX
  5
A2
330
A0
100
AcDbEntity
  8
Pockets 8mm deep
100
AcDbVertex
100
AcDb2dVertex
 10
125.5007612233304
 20
54.0674282165765
 30
0.0
  0
VERTEX
  5
A3
330
A0
100
AcDbEntity
  8
Pockets 8mm deep
100
AcDbVertex
100
AcDb2dVertex
 10
125.5007612233304
 20
64.0674282165765
 30
0.0
  0
VERTEX
  5
A4
330
A0
100
AcDbEntity
  8
Pockets 8mm deep
100
AcDbVertex
100
AcDb2dVertex
 10
80.50076122333044
 20
64.0674282165765
 30
0.0
  0
VERTEX
  5
A5
330
A0
100
AcDbEntity
  8
Pockets 8mm deep
100
AcDbVertex
100
AcDb2dVertex
 10
80.50076122333044
 20
54.0674282165765
 30
0.0
  0
SEQEND
  5
A6
330
A0
100
AcDbEntity
  8
Pockets 8mm deep
  0
POLYLINE
  5
A7
330
1F
100
AcDbEntity
  8
Pockets 8mm deep
100
AcDb2dPolyline
 66
     1
 10
0.0
 20
0.0
 30
0.0
  0
VERTEX
  5
A8
330
A7
100
AcDbEntity
  8
Pockets 8mm deep
100
AcDbVertex
100
AcDb2dVertex
 10
80.50076122333044
 20
25.0674282165765
 30
0.0
  0
VERTEX
  5
A9
330
A7
100
AcDbEntity
  8
Pockets 8mm deep
100
AcDbVertex
100
AcDb2dVertex
 10
125.5007612233304
 20
25.0674282165765
 30
0.0
  0
VERTEX
  5
AA
330
A7
100
AcDbEntity
  8
Pockets 8mm deep
100
AcDbVertex
100
AcDb2dVertex
 10
125.5007612233304
 20
35.0674282165765
 30
0.0
  0
VERTEX
  5
AB
330
A7
100
AcDbEntity
  8
Pockets 8mm deep
100
AcDbVertex
100
AcDb2dVertex
 10
80.50076122333044
 20
35.0674282165765
 30
0.0
  0
VERTEX
  5
AC
330
A7
100
AcDbEntity
  8
Pockets 8mm deep
100
AcDbVertex
100
AcDb2dVertex
 10
80.50076122333044
 20
25.0674282165765
 30
0.0
  0
SEQEND
  5
AD
330
A7
100
AcDbEntity
  8
Pockets 8mm deep
  0
POLYLINE
  5
AE
330
1F
100
AcDbEntity
  8
Pockets 8mm deep
100
AcDb2dPolyline
 66
     1
 10
0.0
 20
0.0
 30
0.0
  0
VERTEX
  5
AF
330
AE
100
AcDbEntity
  8
Pockets 8mm deep
100
AcDbVertex
100
AcDb2dVertex
 10
25.50076122333045
 20
271.5674282165764
 30
0.0
  0
VERTEX
  5
B0
330
AE
100
AcDbEntity
  8
Pockets 8mm deep
100
AcDbVertex
100
AcDb2dVertex
 10
70.50076122333044
 20
271.5674282165764
 30
0.0
  0
VERTEX
  5
B1
330
AE
100
AcDbEntity
  8
Pockets 8mm deep
100
AcDbVertex
100
AcDb2dVertex
 10
70.50076122333044
 20
281.5674282165764
 30
0.0
  0
VERTEX
  5
B2
330
AE
100
AcDbEntity
  8
Pockets 8mm deep
100
AcDbVertex
100
AcDb2dVertex
 10
25.50076122333045
 20
281.5674282165764
 30
0.0
  0
VERTEX
  5
B3
330
AE
100
AcDbEntity
  8
Pockets 8mm deep
100
AcDbVertex
100
AcDb2dVertex
 10
25.50076122333045
 20
271.5674282165764
 30
0.0
  0
SEQEND
  5
B4
330
AE
100
AcDbEntity
  8
Pockets 8mm deep
  0
POLYLINE
  5
B5
330
1F
100
AcDbEntity
  8
Pockets 8mm deep
100
AcDb2dPolyline
 66
     1
 10
0.0
 20
0.0
 30
0.0
  0
VERTEX
  5
B6
330
B5
100
AcDbEntity
  8
Pockets 8mm deep
100
AcDbVertex
100
AcDb2dVertex
 10
135.5007612233304
 20
242.5674282165764
 30
0.0
  0
VERTEX
  5
B7
330
B5
100
AcDbEntity
  8
Pockets 8mm deep
100
AcDbVertex
100
AcDb2dVertex
 10
180.5007612233304
 20
242.5674282165764
 30
0.0
  0
VERTEX
  5
B8
330
B5
100
AcDbEntity
  8
Pockets 8mm deep
100
AcDbVertex
100
AcDb2dVertex
 10
180.5007612233304
 20
252.5674282165764
 30
0.0
  0
VERTEX
  5
B9
330
B5
100
AcDbEntity
  8
Pockets 8mm deep
100
AcDbVertex
100
AcDb2dVertex
 10
135.5007612233304
 20
252.5674282165764
 30
0.0
  0
VERTEX
  5
BA
330
B5
100
AcDbEntity
  8
Pockets 8mm deep
100
AcDbVertex
100
AcDb2dVertex
 10
135.5007612233304
 20
242.5674282165764
 30
0.0
  0
SEQEND
  5
BB
330
B5
100
AcDbEntity
  8
Pockets 8mm deep
  0
POLYLINE
  5
BC
330
1F
100
AcDbEntity
  8
Pockets 8mm deep
100
AcDb2dPolyline
 66
     1
 10
0.0
 20
0.0
 30
0.0
  0
VERTEX
  5
BD
330
BC
100
AcDbEntity
  8
Pockets 8mm deep
100
AcDbVertex
100
AcDb2dVertex
 10
135.5007612233304
 20
213.5674282165765
 30
0.0
  0
VERTEX
  5
BE
330
BC
100
AcDbEntity
  8
Pockets 8mm deep
100
AcDbVertex
100
AcDb2dVertex
 10
180.5007612233304
 20
213.5674282165765
 30
0.0
  0
VERTEX
  5
BF
330
BC
100
AcDbEntity
  8
Pockets 8mm deep
100
AcDbVertex
100
AcDb2dVertex
 10
180.5007612233304
 20
223.5674282165765
 30
0.0
  0
VERTEX
  5
C0
330
BC
100
AcDbEntity
  8
Pockets 8mm deep
100
AcDbVertex
100
AcDb2dVertex
 10
135.5007612233304
 20
223.5674282165765
 30
0.0
  0
VERTEX
  5
C1
330
BC
100
AcDbEntity
  8
Pockets 8mm deep
100
AcDbVertex
100
AcDb2dVertex
 10
135.5007612233304
 20
213.5674282165765
 30
0.0
  0
SEQEND
  5
C2
330
BC
100
AcDbEntity
  8
Pockets 8mm deep
  0
POLYLINE
  5
C3
330
1F
100
AcDbEntity
  8
Pockets 8mm deep
100
AcDb2dPolyline
 66
     1
 10
0.0
 20
0.0
 30
0.0
  0
VERTEX
  5
C4
330
C3
100
AcDbEntity
  8
Pockets 8mm deep
100
AcDbVertex
100
AcDb2dVertex
 10
135.5007612233304
 20
184.5674282165765
 30
0.0
  0
VERTEX
  5
C5
330
C3
100
AcDbEntity
  8
Pockets 8mm deep
100
AcDbVertex
100
AcDb2dVertex
 10
180.5007612233304
 20
184.5674282165765
 30
0.0
  0
VERTEX
  5
C6
330
C3
100
AcDbEntity
  8
Pockets 8mm deep
100
AcDbVertex
100
AcDb2dVertex
 10
180.5007612233304
 20
194.5674282165765
 30
0.0
  0
VERTEX
  5
C7
330
C3
100
AcDbEntity
  8
Pockets 8mm deep
100
AcDbVertex
100
AcDb2dVertex
 10
135.5007612233304
 20
194.5674282165765
 30
0.0
  0
VERTEX
  5
C8
330
C3
100
AcDbEntity
  8
Pockets 8mm deep
100
AcDbVertex
100
AcDb2dVertex
 10
135.5007612233304
 20
184.5674282165765
 30
0.0
  0
SEQEND
  5
C9
330
C3
100
AcDbEntity
  8
Pockets 8mm deep
  0
POLYLINE
  5
CA
330
1F
100
AcDbEntity
  8
Pockets 8mm deep
100
AcDb2dPolyline
 66
     1
 10
0.0
 20
0.0
 30
0.0
  0
VERTEX
  5
CB
330
CA
100
AcDbEntity
  8
Pockets 8mm deep
100
AcDbVertex
100
AcDb2dVertex
 10
135.5007612233304
 20
155.5674282165765
 30
0.0
  0
VERTEX
  5
CC
330
CA
100
AcDbEntity
  8
Pockets 8mm deep
100
AcDbVertex
100
AcDb2dVertex
 10
180.5007612233304
 20
155.5674282165765
 30
0.0
  0
VERTEX
  5
CD
330
CA
100
AcDbEntity
  8
Pockets 8mm deep
100
AcDbVertex
100
AcDb2dVertex
 10
180.5007612233304
 20
165.5674282165765
 30
0.0
  0
VERTEX
  5
CE
330
CA
100
AcDbEntity
  8
Pockets 8mm deep
100
AcDbVertex
100
AcDb2dVertex
 10
135.5007612233304
 20
165.5674282165765
 30
0.0
  0
VERTEX
  5
CF
330
CA
100
AcDbEntity
  8
Pockets 8mm deep
100
AcDbVertex
100
AcDb2dVertex
 10
135.5007612233304
 20
155.5674282165765
 30
0.0
  0
SEQEND
  5
D0
330
CA
100
AcDbEntity
  8
Pockets 8mm deep
  0
POLYLINE
  5
D1
330
1F
100
AcDbEntity
  8
Pockets 8mm deep
100
AcDb2dPolyline
 66
     1
 10
0.0
 20
0.0
 30
0.0
  0
VERTEX
  5
D2
330
D1
100
AcDbEntity
  8
Pockets 8mm deep
100
AcDbVertex
100
AcDb2dVertex
 10
135.5007612233304
 20
126.5674282165765
 30
0.0
  0
VERTEX
  5
D3
330
D1
100
AcDbEntity
  8
Pockets 8mm deep
100
AcDbVertex
100
AcDb2dVertex
 10
180.5007612233304
 20
126.5674282165765
 30
0.0
  0
VERTEX
  5
D4
330
D1
100
AcDbEntity
  8
Pockets 8mm deep
100
AcDbVertex
100
AcDb2dVertex
 10
180.5007612233304
 20
136.5674282165765
 30
0.0
  0
VERTEX
  5
D5
330
D1
100
AcDbEntity
  8
Pockets 8mm deep
100
AcDbVertex
100
AcDb2dVertex
 10
135.5007612233304
 20
136.5674282165765
 30
0.0
  0
VERTEX
  5
D6
330
D1
100
AcDbEntity
  8
Pockets 8mm deep
100
AcDbVertex
100
AcDb2dVertex
 10
135.5007612233304
 20
126.5674282165765
 30
0.0
  0
SEQEND
  5
D7
330
D1
100
AcDbEntity
  8
Pockets 8mm deep
  0
POLYLINE
  5
D8
330
1F
100
AcDbEntity
  8
Pockets 8mm deep
100
AcDb2dPolyline
 66
     1
 10
0.0
 20
0.0
 30
0.0
  0
VERTEX
  5
D9
330
D8
100
AcDbEntity
  8
Pockets 8mm deep
100
AcDbVertex
100
AcDb2dVertex
 10
135.5007612233304
 20
97.5674282165765
 30
0.0
  0
VERTEX
  5
DA
330
D8
100
AcDbEntity
  8
Pockets 8mm deep
100
AcDbVertex
100
AcDb2dVertex
 10
180.5007612233304
 20
97.5674282165765
 30
0.0
  0
VERTEX
  5
DB
330
D8
100
AcDbEntity
  8
Pockets 8mm deep
100
AcDbVertex
100
AcDb2dVertex
 10
180.5007612233304
 20
107.5674282165765
 30
0.0
  0
VERTEX
  5
DC
330
D8
100
AcDbEntity
  8
Pockets 8mm deep
100
AcDbVertex
100
AcDb2dVertex
 10
135.5007612233304
 20
107.5674282165765
 30
0.0
  0
VERTEX
  5
DD
330
D8
100
AcDbEntity
  8
Pockets 8mm deep
100
AcDbVertex
100
AcDb2dVertex
 10
135.5007612233304
 20
97.5674282165765
 30
0.0
  0
SEQEND
  5
DE
330
D8
100
AcDbEntity
  8
Pockets 8mm deep
  0
POLYLINE
  5
DF
330
1F
100
AcDbEntity
  8
Pockets 8mm deep
100
AcDb2dPolyline
 66
     1
 10
0.0
 20
0.0
 30
0.0
  0
VERTEX
  5
E0
330
DF
100
AcDbEntity
  8
Pockets 8mm deep
100
AcDbVertex
100
AcDb2dVertex
 10
135.5007612233304
 20
68.5674282165765
 30
0.0
  0
VERTEX
  5
E1
330
DF
100
AcDbEntity
  8
Pockets 8mm deep
100
AcDbVertex
100
AcDb2dVertex
 10
180.5007612233304
 20
68.5674282165765
 30
0.0
  0
VERTEX
  5
E2
330
DF
100
AcDbEntity
  8
Pockets 8mm deep
100
AcDbVertex
100
AcDb2dVertex
 10
180.5007612233304
 20
78.5674282165765
 30
0.0
  0
VERTEX
  5
E3
330
DF
100
AcDbEntity
  8
Pockets 8mm deep
100
AcDbVertex
100
AcDb2dVertex
 10
135.5007612233304
 20
78.5674282165765
 30
0.0
  0
VERTEX
  5
E4
330
DF
100
AcDbEntity
  8
Pockets 8mm deep
100
AcDbVertex
100
AcDb2dVertex
 10
135.5007612233304
 20
68.5674282165765
 30
0.0
  0
SEQEND
  5
E5
330
DF
100
AcDbEntity
  8
Pockets 8mm deep
  0
POLYLINE
  5
E6
330
1F
100
AcDbEntity
  8
Pockets 8mm deep
100
AcDb2dPolyline
 66
     1
 10
0.0
 20
0.0
 30
0.0
  0
VERTEX
  5
E7
330
E6
100
AcDbEntity
  8
Pockets 8mm deep
100
AcDbVertex
100
AcDb2dVertex
 10
135.5007612233304
 20
39.5674282165765
 30
0.0
  0
VERTEX
  5
E8
330
E6
100
AcDbEntity
  8
Pockets 8mm deep
100
AcDbVertex
100
AcDb2dVertex
 10
180.5007612233304
 20
39.5674282165765
 30
0.0
  0
VERTEX
  5
E9
330
E6
100
AcDbEntity
  8
Pockets 8mm deep
100
AcDbVertex
100
AcDb2dVertex
 10
180.5007612233304
 20
49.5674282165765
 30
0.0
  0
VERTEX
  5
EA
330
E6
100
AcDbEntity
  8
Pockets 8mm deep
100
AcDbVertex
100
AcDb2dVertex
 10
135.5007612233304
 20
49.5674282165765
 30
0.0
  0
VERTEX
  5
EB
330
E6
100
AcDbEntity
  8
Pockets 8mm deep
100
AcDbVertex
100
AcDb2dVertex
 10
135.5007612233304
 20
39.5674282165765
 30
0.0
  0
SEQEND
  5
EC
330
E6
100
AcDbEntity
  8
Pockets 8mm deep
  0
POLYLINE
  5
ED
330
1F
100
AcDbEntity
  8
Pockets 8mm deep
100
AcDb2dPolyline
 66
     1
 10
0.0
 20
0.0
 30
0.0
  0
VERTEX
  5
EE
330
ED
100
AcDbEntity
  8
Pockets 8mm deep
100
AcDbVertex
100
AcDb2dVertex
 10
135.5007612233304
 20
10.5674282165765
 30
0.0
  0
VERTEX
  5
EF
330
ED
100
AcDbEntity
  8
Pockets 8mm deep
100
AcDbVertex
100
AcDb2dVertex
 10
180.5007612233304
 20
10.5674282165765
 30
0.0
  0
VERTEX
  5
F0
330
ED
100
AcDbEntity
  8
Pockets 8mm deep
100
AcDbVertex
100
AcDb2dVertex
 10
180.5007612233304
 20
20.5674282165765
 30
0.0
  0
VERTEX
  5
F1
330
ED
100
AcDbEntity
  8
Pockets 8mm deep
100
AcDbVertex
100
AcDb2dVertex
 10
135.5007612233304
 20
20.5674282165765
 30
0.0
  0
VERTEX
  5
F2
330
ED
100
AcDbEntity
  8
Pockets 8mm deep
100
AcDbVertex
100
AcDb2dVertex
 10
135.5007612233304
 20
10.5674282165765
 30
0.0
  0
SEQEND
  5
F3
330
ED
100
AcDbEntity
  8
Pockets 8mm deep
  0
POLYLINE
  5
F4
330
1F
100
AcDbEntity
  8
Pockets 8mm deep
100
AcDb2dPolyline
 66
     1
 10
0.0
 20
0.0
 30
0.0
  0
VERTEX
  5
F5
330
F4
100
AcDbEntity
  8
Pockets 8mm deep
100
AcDbVertex
100
AcDb2dVertex
 10
190.5007612233304
 20
257.0674282165764
 30
0.0
  0
VERTEX
  5
F6
330
F4
100
AcDbEntity
  8
Pockets 8mm deep
100
AcDbVertex
100
AcDb2dVertex
 10
235.5007612233304
 20
257.0674282165764
 30
0.0
  0
VERTEX
  5
F7
330
F4
100
AcDbEntity
  8
Pockets 8mm deep
100
AcDbVertex
100
AcDb2dVertex
 10
235.5007612233304
 20
267.0674282165764
 30
0.0
  0
VERTEX
  5
F8
330
F4
100
AcDbEntity
  8
Pockets 8mm deep
100
AcDbVertex
100
AcDb2dVertex
 10
190.5007612233304
 20
267.0674282165764
 30
0.0
  0
VERTEX
  5
F9
330
F4
100
AcDbEntity
  8
Pockets 8mm deep
100
AcDbVertex
100
AcDb2dVertex
 10
190.5007612233304
 20
257.0674282165764
 30
0.0
  0
SEQEND
  5
FA
330
F4
100
AcDbEntity
  8
Pockets 8mm deep
  0
POLYLINE
  5
FB
330
1F
100
AcDbEntity
  8
Pockets 8mm deep
100
AcDb2dPolyline
 66
     1
 10
0.0
 20
0.0
 30
0.0
  0
VERTEX
  5
FC
330
FB
100
AcDbEntity
  8
Pockets 8mm deep
100
AcDbVertex
100
AcDb2dVertex
 10
190.5007612233304
 20
228.0674282165765
 30
0.0
  0
VERTEX
  5
FD
330
FB
100
AcDbEntity
  8
Pockets 8mm deep
100
AcDbVertex
100
AcDb2dVertex
 10
235.5007612233304
 20
228.0674282165765
 30
0.0
  0
VERTEX
  5
FE
330
FB
100
AcDbEntity
  8
Pockets 8mm deep
100
AcDbVertex
100
AcDb2dVertex
 10
235.5007612233304
 20
238.0674282165765
 30
0.0
  0
VERTEX
  5
FF
330
FB
100
AcDbEntity
  8
Pockets 8mm deep
100
AcDbVertex
100
AcDb2dVertex
 10
190.5007612233304
 20
238.0674282165765
 30
0.0
  0
VERTEX
  5
100
330
FB
100
AcDbEntity
  8
Pockets 8mm deep
100
AcDbVertex
100
AcDb2dVertex
 10
190.5007612233304
 20
228.0674282165765
 30
0.0
  0
SEQEND
  5
101
330
FB
100
AcDbEntity
  8
Pockets 8mm deep
  0
POLYLINE
  5
102
330
1F
100
AcDbEntity
  8
Pockets 8mm deep
100
AcDb2dPolyline
 66
     1
 10
0.0
 20
0.0
 30
0.0
  0
VERTEX
  5
103
330
102
100
AcDbEntity
  8
Pockets 8mm deep
100
AcDbVertex
100
AcDb2dVertex
 10
190.5007612233304
 20
199.0674282165765
 30
0.0
  0
VERTEX
  5
104
330
102
100
AcDbEntity
  8
Pockets 8mm deep
100
AcDbVertex
100
AcDb2dVertex
 10
235.5007612233304
 20
199.0674282165765
 30
0.0
  0
VERTEX
  5
105
330
102
100
AcDbEntity
  8
Pockets 8mm deep
100
AcDbVertex
100
AcDb2dVertex
 10
235.5007612233304
 20
209.0674282165765
 30
0.0
  0
VERTEX
  5
106
330
102
100
AcDbEntity
  8
Pockets 8mm deep
100
AcDbVertex
100
AcDb2dVertex
 10
190.5007612233304
 20
209.0674282165765
 30
0.0
  0
VERTEX
  5
107
330
102
100
AcDbEntity
  8
Pockets 8mm deep
100
AcDbVertex
100
AcDb2dVertex
 10
190.5007612233304
 20
199.0674282165765
 30
0.0
  0
SEQEND
  5
108
330
102
100
AcDbEntity
  8
Pockets 8mm deep
  0
POLYLINE
  5
109
330
1F
100
AcDbEntity
  8
Pockets 8mm deep
100
AcDb2dPolyline
 66
     1
 10
0.0
 20
0.0
 30
0.0
  0
VERTEX
  5
10A
330
109
100
AcDbEntity
  8
Pockets 8mm deep
100
AcDbVertex
100
AcDb2dVertex
 10
190.5007612233304
 20
170.0674282165765
 30
0.0
  0
VERTEX
  5
10B
330
109
100
AcDbEntity
  8
Pockets 8mm deep
100
AcDbVertex
100
AcDb2dVertex
 10
235.5007612233304
 20
170.0674282165765
 30
0.0
  0
VERTEX
  5
10C
330
109
100
AcDbEntity
  8
Pockets 8mm deep
100
AcDbVertex
100
AcDb2dVertex
 10
235.5007612233304
 20
180.0674282165765
 30
0.0
  0
VERTEX
  5
10D
330
109
100
AcDbEntity
  8
Pockets 8mm deep
100
AcDbVertex
100
AcDb2dVertex
 10
190.5007612233304
 20
180.0674282165765
 30
0.0
  0
VERTEX
  5
10E
330
109
100
AcDbEntity
  8
Pockets 8mm deep
100
AcDbVertex
100
AcDb2dVertex
 10
190.5007612233304
 20
170.0674282165765
 30
0.0
  0
SEQEND
  5
10F
330
109
100
AcDbEntity
  8
Pockets 8mm deep
  0
POLYLINE
  5
110
330
1F
100
AcDbEntity
  8
Pockets 8mm deep
100
AcDb2dPolyline
 66
     1
 10
0.0
 20
0.0
 30
0.0
  0
VERTEX
  5
111
330
110
100
AcDbEntity
  8
Pockets 8mm deep
100
AcDbVertex
100
AcDb2dVertex
 10
190.5007612233304
 20
141.0674282165765
 30
0.0
  0
VERTEX
  5
112
330
110
100
AcDbEntity
  8
Pockets 8mm deep
100
AcDbVertex
100
AcDb2dVertex
 10
235.5007612233304
 20
141.0674282165765
 30
0.0
  0
VERTEX
  5
113
330
110
100
AcDbEntity
  8
Pockets 8mm deep
100
AcDbVertex
100
AcDb2dVertex
 10
235.5007612233304
 20
151.0674282165765
 30
0.0
  0
VERTEX
  5
114
330
110
100
AcDbEntity
  8
Pockets 8mm deep
100
AcDbVertex
100
AcDb2dVertex
 10
190.5007612233304
 20
151.0674282165765
 30
0.0
  0
VERTEX
  5
115
330
110
100
AcDbEntity
  8
Pockets 8mm deep
100
AcDbVertex
100
AcDb2dVertex
 10
190.5007612233304
 20
141.0674282165765
 30
0.0
  0
SEQEND
  5
116
330
110
100
AcDbEntity
  8
Pockets 8mm deep
  0
POLYLINE
  5
117
330
1F
100
AcDbEntity
  8
Pockets 8mm deep
100
AcDb2dPolyline
 66
     1
 10
0.0
 20
0.0
 30
0.0
  0
VERTEX
  5
118
330
117
100
AcDbEntity
  8
Pockets 8mm deep
100
AcDbVertex
100
AcDb2dVertex
 10
190.5007612233304
 20
112.0674282165765
 30
0.0
  0
VERTEX
  5
119
330
117
100
AcDbEntity
  8
Pockets 8mm deep
100
AcDbVertex
100
AcDb2dVertex
 10
235.5007612233304
 20
112.0674282165765
 30
0.0
  0
VERTEX
  5
11A
330
117
100
AcDbEntity
  8
Pockets 8mm deep
100
AcDbVertex
100
AcDb2dVertex
 10
235.5007612233304
 20
122.0674282165765
 30
0.0
  0
VERTEX
  5
11B
330
117
100
AcDbEntity
  8
Pockets 8mm deep
100
AcDbVertex
100
AcDb2dVertex
 10
190.5007612233304
 20
122.0674282165765
 30
0.0
  0
VERTEX
  5
11C
330
117
100
AcDbEntity
  8
Pockets 8mm deep
100
AcDbVertex
100
AcDb2dVertex
 10
190.5007612233304
 20
112.0674282165765
 30
0.0
  0
SEQEND
  5
11D
330
117
100
AcDbEntity
  8
Pockets 8mm deep
  0
POLYLINE
  5
11E
330
1F
100
AcDbEntity
  8
Pockets 8mm deep
100
AcDb2dPolyline
 66
     1
 10
0.0
 20
0.0
 30
0.0
  0
VERTEX
  5
11F
330
11E
100
AcDbEntity
  8
Pockets 8mm deep
100
AcDbVertex
100
AcDb2dVertex
 10
190.5007612233304
 20
83.0674282165765
 30
0.0
  0
VERTEX
  5
120
330
11E
100
AcDbEntity
  8
Pockets 8mm deep
100
AcDbVertex
100
AcDb2dVertex
 10
235.5007612233304
 20
83.0674282165765
 30
0.0
  0
VERTEX
  5
121
330
11E
100
AcDbEntity
  8
Pockets 8mm deep
100
AcDbVertex
100
AcDb2dVertex
 10
235.5007612233304
 20
93.0674282165765
 30
0.0
  0
VERTEX
  5
122
330
11E
100
AcDbEntity
  8
Pockets 8mm deep
100
AcDbVertex
100
AcDb2dVertex
 10
190.5007612233304
 20
93.0674282165765
 30
0.0
  0
VERTEX
  5
123
330
11E
100
AcDbEntity
  8
Pockets 8mm deep
100
AcDbVertex
100
AcDb2dVertex
 10
190.5007612233304
 20
83.0674282165765
 30
0.0
  0
SEQEND
  5
124
330
11E
100
AcDbEntity
  8
Pockets 8mm deep
  0
POLYLINE
  5
125
330
1F
100
AcDbEntity
  8
Pockets 8mm deep
100
AcDb2dPolyline
 66
     1
 10
0.0
 20
0.0
 30
0.0
  0
VERTEX
  5
126
330
125
100
AcDbEntity
  8
Pockets 8mm deep
100
AcDbVertex
100
AcDb2dVertex
 10
190.5007612233304
 20
54.0674282165765
 30
0.0
  0
VERTEX
  5
127
330
125
100
AcDbEntity
  8
Pockets 8mm deep
100
AcDbVertex
100
AcDb2dVertex
 10
235.5007612233304
 20
54.0674282165765
 30
0.0
  0
VERTEX
  5
128
330
125
100
AcDbEntity
  8
Pockets 8mm deep
100
AcDbVertex
100
AcDb2dVertex
 10
235.5007612233304
 20
64.0674282165765
 30
0.0
  0
VERTEX
  5
129
330
125
100
AcDbEntity
  8
Pockets 8mm deep
100
AcDbVertex
100
AcDb2dVertex
 10
190.5007612233304
 20
64.0674282165765
 30
0.0
  0
VERTEX
  5
12A
330
125
100
AcDbEntity
  8
Pockets 8mm deep
100
AcDbVertex
100
AcDb2dVertex
 10
190.5007612233304
 20
54.0674282165765
 30
0.0
  0
SEQEND
  5
12B
330
125
100
AcDbEntity
  8
Pockets 8mm deep
  0
POLYLINE
  5
12C
330
1F
100
AcDbEntity
  8
Pockets 8mm deep
100
AcDb2dPolyline
 66
     1
 10
0.0
 20
0.0
 30
0.0
  0
VERTEX
  5
12D
330
12C
100
AcDbEntity
  8
Pockets 8mm deep
100
AcDbVertex
100
AcDb2dVertex
 10
190.5007612233304
 20
25.0674282165765
 30
0.0
  0
VERTEX
  5
12E
330
12C
100
AcDbEntity
  8
Pockets 8mm deep
100
AcDbVertex
100
AcDb2dVertex
 10
235.5007612233304
 20
25.0674282165765
 30
0.0
  0
VERTEX
  5
12F
330
12C
100
AcDbEntity
  8
Pockets 8mm deep
100
AcDbVertex
100
AcDb2dVertex
 10
235.5007612233304
 20
35.0674282165765
 30
0.0
  0
VERTEX
  5
130
330
12C
100
AcDbEntity
  8
Pockets 8mm deep
100
AcDbVertex
100
AcDb2dVertex
 10
190.5007612233304
 20
35.0674282165765
 30
0.0
  0
VERTEX
  5
131
330
12C
100
AcDbEntity
  8
Pockets 8mm deep
100
AcDbVertex
100
AcDb2dVertex
 10
190.5007612233304
 20
25.0674282165765
 30
0.0
  0
SEQEND
  5
132
330
12C
100
AcDbEntity
  8
Pockets 8mm deep
  0
POLYLINE
  5
133
330
1F
100
AcDbEntity
  8
Pockets 8mm deep
100
AcDb2dPolyline
 66
     1
 10
0.0
 20
0.0
 30
0.0
  0
VERTEX
  5
134
330
133
100
AcDbEntity
  8
Pockets 8mm deep
100
AcDbVertex
100
AcDb2dVertex
 10
135.5007612233304
 20
271.5674282165764
 30
0.0
  0
VERTEX
  5
135
330
133
100
AcDbEntity
  8
Pockets 8mm deep
100
AcDbVertex
100
AcDb2dVertex
 10
180.5007612233304
 20
271.5674282165764
 30
0.0
  0
VERTEX
  5
136
330
133
100
AcDbEntity
  8
Pockets 8mm deep
100
AcDbVertex
100
AcDb2dVertex
 10
180.5007612233304
 20
281.5674282165764
 30
0.0
  0
VERTEX
  5
137
330
133
100
AcDbEntity
  8
Pockets 8mm deep
100
AcDbVertex
100
AcDb2dVertex
 10
135.5007612233304
 20
281.5674282165764
 30
0.0
  0
VERTEX
  5
138
330
133
100
AcDbEntity
  8
Pockets 8mm deep
100
AcDbVertex
100
AcDb2dVertex
 10
135.5007612233304
 20
271.5674282165764
 30
0.0
  0
SEQEND
  5
139
330
133
100
AcDbEntity
  8
Pockets 8mm deep
  0
POLYLINE
  5
13A
330
1F
100
AcDbEntity
  8
Pockets 8mm deep
100
AcDb2dPolyline
 66
     1
 10
0.0
 20
0.0
 30
0.0
  0
VERTEX
  5
13B
330
13A
100
AcDbEntity
  8
Pockets 8mm deep
100
AcDbVertex
100
AcDb2dVertex
 10
245.5007612233304
 20
271.5674282165764
 30
0.0
  0
VERTEX
  5
13C
330
13A
100
AcDbEntity
  8
Pockets 8mm deep
100
AcDbVertex
100
AcDb2dVertex
 10
290.5007612233305
 20
271.5674282165764
 30
0.0
  0
VERTEX
  5
13D
330
13A
100
AcDbEntity
  8
Pockets 8mm deep
100
AcDbVertex
100
AcDb2dVertex
 10
290.5007612233305
 20
281.5674282165764
 30
0.0
  0
VERTEX
  5
13E
330
13A
100
AcDbEntity
  8
Pockets 8mm deep
100
AcDbVertex
100
AcDb2dVertex
 10
245.5007612233304
 20
281.5674282165764
 30
0.0
  0
VERTEX
  5
13F
330
13A
100
AcDbEntity
  8
Pockets 8mm deep
100
AcDbVertex
100
AcDb2dVertex
 10
245.5007612233304
 20
271.5674282165764
 30
0.0
  0
SEQEND
  5
140
330
13A
100
AcDbEntity
  8
Pockets 8mm deep
  0
POLYLINE
  5
141
330
1F
100
AcDbEntity
  8
Pockets 8mm deep
100
AcDb2dPolyline
 66
     1
 10
0.0
 20
0.0
 30
0.0
  0
VERTEX
  5
142
330
141
100
AcDbEntity
  8
Pockets 8mm deep
100
AcDbVertex
100
AcDb2dVertex
 10
300.5007612233305
 20
25.0674282165765
 30
0.0
  0
VERTEX
  5
143
330
141
100
AcDbEntity
  8
Pockets 8mm deep
100
AcDbVertex
100
AcDb2dVertex
 10
345.5007612233305
 20
25.0674282165765
 30
0.0
  0
VERTEX
  5
144
330
141
100
AcDbEntity
  8
Pockets 8mm deep
100
AcDbVertex
100
AcDb2dVertex
 10
345.5007612233305
 20
35.0674282165765
 30
0.0
  0
VERTEX
  5
145
330
141
100
AcDbEntity
  8
Pockets 8mm deep
100
AcDbVertex
100
AcDb2dVertex
 10
300.5007612233305
 20
35.0674282165765
 30
0.0
  0
VERTEX
  5
146
330
141
100
AcDbEntity
  8
Pockets 8mm deep
100
AcDbVertex
100
AcDb2dVertex
 10
300.5007612233305
 20
25.0674282165765
 30
0.0
  0
SEQEND
  5
147
330
141
100
AcDbEntity
  8
Pockets 8mm deep
  0
POLYLINE
  5
148
330
1F
100
AcDbEntity
  8
Pockets 8mm deep
100
AcDb2dPolyline
 66
     1
 10
0.0
 20
0.0
 30
0.0
  0
VERTEX
  5
149
330
148
100
AcDbEntity
  8
Pockets 8mm deep
100
AcDbVertex
100
AcDb2dVertex
 10
300.5007612233305
 20
54.0674282165765
 30
0.0
  0
VERTEX
  5
14A
330
148
100
AcDbEntity
  8
Pockets 8mm deep
100
AcDbVertex
100
AcDb2dVertex
 10
345.5007612233305
 20
54.0674282165765
 30
0.0
  0
VERTEX
  5
14B
330
148
100
AcDbEntity
  8
Pockets 8mm deep
100
AcDbVertex
100
AcDb2dVertex
 10
345.5007612233305
 20
64.0674282165765
 30
0.0
  0
VERTEX
  5
14C
330
148
100
AcDbEntity
  8
Pockets 8mm deep
100
AcDbVertex
100
AcDb2dVertex
 10
300.5007612233305
 20
64.0674282165765
 30
0.0
  0
VERTEX
  5
14D
330
148
100
AcDbEntity
  8
Pockets 8mm deep
100
AcDbVertex
100
AcDb2dVertex
 10
300.5007612233305
 20
54.0674282165765
 30
0.0
  0
SEQEND
  5
14E
330
148
100
AcDbEntity
  8
Pockets 8mm deep
  0
POLYLINE
  5
14F
330
1F
100
AcDbEntity
  8
Pockets 8mm deep
100
AcDb2dPolyline
 66
     1
 10
0.0
 20
0.0
 30
0.0
  0
VERTEX
  5
150
330
14F
100
AcDbEntity
  8
Pockets 8mm deep
100
AcDbVertex
100
AcDb2dVertex
 10
300.5007612233305
 20
83.0674282165765
 30
0.0
  0
VERTEX
  5
151
330
14F
100
AcDbEntity
  8
Pockets 8mm deep
100
AcDbVertex
100
AcDb2dVertex
 10
345.5007612233305
 20
83.0674282165765
 30
0.0
  0
VERTEX
  5
152
330
14F
100
AcDbEntity
  8
Pockets 8mm deep
100
AcDbVertex
100
AcDb2dVertex
 10
345.5007612233305
 20
93.0674282165765
 30
0.0
  0
VERTEX
  5
153
330
14F
100
AcDbEntity
  8
Pockets 8mm deep
100
AcDbVertex
100
AcDb2dVertex
 10
300.5007612233305
 20
93.0674282165765
 30
0.0
  0
VERTEX
  5
154
330
14F
100
AcDbEntity
  8
Pockets 8mm deep
100
AcDbVertex
100
AcDb2dVertex
 10
300.5007612233305
 20
83.0674282165765
 30
0.0
  0
SEQEND
  5
155
330
14F
100
AcDbEntity
  8
Pockets 8mm deep
  0
POLYLINE
  5
156
330
1F
100
AcDbEntity
  8
Pockets 8mm deep
100
AcDb2dPolyline
 66
     1
 10
0.0
 20
0.0
 30
0.0
  0
VERTEX
  5
157
330
156
100
AcDbEntity
  8
Pockets 8mm deep
100
AcDbVertex
100
AcDb2dVertex
 10
300.5007612233305
 20
112.0674282165765
 30
0.0
  0
VERTEX
  5
158
330
156
100
AcDbEntity
  8
Pockets 8mm deep
100
AcDbVertex
100
AcDb2dVertex
 10
345.5007612233305
 20
112.0674282165765
 30
0.0
  0
VERTEX
  5
159
330
156
100
AcDbEntity
  8
Pockets 8mm deep
100
AcDbVertex
100
AcDb2dVertex
 10
345.5007612233305
 20
122.0674282165765
 30
0.0
  0
VERTEX
  5
15A
330
156
100
AcDbEntity
  8
Pockets 8mm deep
100
AcDbVertex
100
AcDb2dVertex
 10
300.5007612233305
 20
122.0674282165765
 30
0.0
  0
VERTEX
  5
15B
330
156
100
AcDbEntity
  8
Pockets 8mm deep
100
AcDbVertex
100
AcDb2dVertex
 10
300.5007612233305
 20
112.0674282165765
 30
0.0
  0
SEQEND
  5
15C
330
156
100
AcDbEntity
  8
Pockets 8mm deep
  0
POLYLINE
  5
15D
330
1F
100
AcDbEntity
  8
Pockets 8mm deep
100
AcDb2dPolyline
 66
     1
 10
0.0
 20
0.0
 30
0.0
  0
VERTEX
  5
15E
330
15D
100
AcDbEntity
  8
Pockets 8mm deep
100
AcDbVertex
100
AcDb2dVertex
 10
300.5007612233305
 20
141.0674282165765
 30
0.0
  0
VERTEX
  5
15F
330
15D
100
AcDbEntity
  8
Pockets 8mm deep
100
AcDbVertex
100
AcDb2dVertex
 10
345.5007612233305
 20
141.0674282165765
 30
0.0
  0
VERTEX
  5
160
330
15D
100
AcDbEntity
  8
Pockets 8mm deep
100
AcDbVertex
100
AcDb2dVertex
 10
345.5007612233305
 20
151.0674282165765
 30
0.0
  0
VERTEX
  5
161
330
15D
100
AcDbEntity
  8
Pockets 8mm deep
100
AcDbVertex
100
AcDb2dVertex
 10
300.5007612233305
 20
151.0674282165765
 30
0.0
  0
VERTEX
  5
162
330
15D
100
AcDbEntity
  8
Pockets 8mm deep
100
AcDbVertex
100
AcDb2dVertex
 10
300.5007612233305
 20
141.0674282165765
 30
0.0
  0
SEQEND
  5
163
330
15D
100
AcDbEntity
  8
Pockets 8mm deep
  0
POLYLINE
  5
164
330
1F
100
AcDbEntity
  8
Pockets 8mm deep
100
AcDb2dPolyline
 66
     1
 10
0.0
 20
0.0
 30
0.0
  0
VERTEX
  5
165
330
164
100
AcDbEntity
  8
Pockets 8mm deep
100
AcDbVertex
100
AcDb2dVertex
 10
300.5007612233305
 20
170.0674282165765
 30
0.0
  0
VERTEX
  5
166
330
164
100
AcDbEntity
  8
Pockets 8mm deep
100
AcDbVertex
100
AcDb2dVertex
 10
345.5007612233305
 20
170.0674282165765
 30
0.0
  0
VERTEX
  5
167
330
164
100
AcDbEntity
  8
Pockets 8mm deep
100
AcDbVertex
100
AcDb2dVertex
 10
345.5007612233305
 20
180.0674282165765
 30
0.0
  0
VERTEX
  5
168
330
164
100
AcDbEntity
  8
Pockets 8mm deep
100
AcDbVertex
100
AcDb2dVertex
 10
300.5007612233305
 20
180.0674282165765
 30
0.0
  0
VERTEX
  5
169
330
164
100
AcDbEntity
  8
Pockets 8mm deep
100
AcDbVertex
100
AcDb2dVertex
 10
300.5007612233305
 20
170.0674282165765
 30
0.0
  0
SEQEND
  5
16A
330
164
100
AcDbEntity
  8
Pockets 8mm deep
  0
POLYLINE
  5
16B
330
1F
100
AcDbEntity
  8
Pockets 8mm deep
100
AcDb2dPolyline
 66
     1
 10
0.0
 20
0.0
 30
0.0
  0
VERTEX
  5
16C
330
16B
100
AcDbEntity
  8
Pockets 8mm deep
100
AcDbVertex
100
AcDb2dVertex
 10
300.5007612233305
 20
199.0674282165765
 30
0.0
  0
VERTEX
  5
16D
330
16B
100
AcDbEntity
  8
Pockets 8mm deep
100
AcDbVertex
100
AcDb2dVertex
 10
345.5007612233305
 20
199.0674282165765
 30
0.0
  0
VERTEX
  5
16E
330
16B
100
AcDbEntity
  8
Pockets 8mm deep
100
AcDbVertex
100
AcDb2dVertex
 10
345.5007612233305
 20
209.0674282165765
 30
0.0
  0
VERTEX
  5
16F
330
16B
100
AcDbEntity
  8
Pockets 8mm deep
100
AcDbVertex
100
AcDb2dVertex
 10
300.5007612233305
 20
209.0674282165765
 30
0.0
  0
VERTEX
  5
170
330
16B
100
AcDbEntity
  8
Pockets 8mm deep
100
AcDbVertex
100
AcDb2dVertex
 10
300.5007612233305
 20
199.0674282165765
 30
0.0
  0
SEQEND
  5
171
330
16B
100
AcDbEntity
  8
Pockets 8mm deep
  0
POLYLINE
  5
172
330
1F
100
AcDbEntity
  8
Pockets 8mm deep
100
AcDb2dPolyline
 66
     1
 10
0.0
 20
0.0
 30
0.0
  0
VERTEX
  5
173
330
172
100
AcDbEntity
  8
Pockets 8mm deep
100
AcDbVertex
100
AcDb2dVertex
 10
300.5007612233305
 20
228.0674282165765
 30
0.0
  0
VERTEX
  5
174
330
172
100
AcDbEntity
  8
Pockets 8mm deep
100
AcDbVertex
100
AcDb2dVertex
 10
345.5007612233305
 20
228.0674282165765
 30
0.0
  0
VERTEX
  5
175
330
172
100
AcDbEntity
  8
Pockets 8mm deep
100
AcDbVertex
100
AcDb2dVertex
 10
345.5007612233305
 20
238.0674282165765
 30
0.0
  0
VERTEX
  5
176
330
172
100
AcDbEntity
  8
Pockets 8mm deep
100
AcDbVertex
100
AcDb2dVertex
 10
300.5007612233305
 20
238.0674282165765
 30
0.0
  0
VERTEX
  5
177
330
172
100
AcDbEntity
  8
Pockets 8mm deep
100
AcDbVertex
100
AcDb2dVertex
 10
300.5007612233305
 20
228.0674282165765
 30
0.0
  0
SEQEND
  5
178
330
172
100
AcDbEntity
  8
Pockets 8mm deep
  0
POLYLINE
  5
179
330
1F
100
AcDbEntity
  8
Pockets 8mm deep
100
AcDb2dPolyline
 66
     1
 10
0.0
 20
0.0
 30
0.0
  0
VERTEX
  5
17A
330
179
100
AcDbEntity
  8
Pockets 8mm deep
100
AcDbVertex
100
AcDb2dVertex
 10
300.5007612233305
 20
257.0674282165764
 30
0.0
  0
VERTEX
  5
17B
330
179
100
AcDbEntity
  8
Pockets 8mm deep
100
AcDbVertex
100
AcDb2dVertex
 10
345.5007612233305
 20
257.0674282165764
 30
0.0
  0
VERTEX
  5
17C
330
179
100
AcDbEntity
  8
Pockets 8mm deep
100
AcDbVertex
100
AcDb2dVertex
 10
345.5007612233305
 20
267.0674282165764
 30
0.0
  0
VERTEX
  5
17D
330
179
100
AcDbEntity
  8
Pockets 8mm deep
100
AcDbVertex
100
AcDb2dVertex
 10
300.5007612233305
 20
267.0674282165764
 30
0.0
  0
VERTEX
  5
17E
330
179
100
AcDbEntity
  8
Pockets 8mm deep
100
AcDbVertex
100
AcDb2dVertex
 10
300.5007612233305
 20
257.0674282165764
 30
0.0
  0
SEQEND
  5
17F
330
179
100
AcDbEntity
  8
Pockets 8mm deep
  0
POLYLINE
  5
180
330
1F
100
AcDbEntity
  8
Pockets 8mm deep
100
AcDb2dPolyline
 66
     1
 10
0.0
 20
0.0
 30
0.0
  0
VERTEX
  5
181
330
180
100
AcDbEntity
  8
Pockets 8mm deep
100
AcDbVertex
100
AcDb2dVertex
 10
245.5007612233304
 20
10.5674282165765
 30
0.0
  0
VERTEX
  5
182
330
180
100
AcDbEntity
  8
Pockets 8mm deep
100
AcDbVertex
100
AcDb2dVertex
 10
290.5007612233305
 20
10.5674282165765
 30
0.0
  0
VERTEX
  5
183
330
180
100
AcDbEntity
  8
Pockets 8mm deep
100
AcDbVertex
100
AcDb2dVertex
 10
290.5007612233305
 20
20.5674282165765
 30
0.0
  0
VERTEX
  5
184
330
180
100
AcDbEntity
  8
Pockets 8mm deep
100
AcDbVertex
100
AcDb2dVertex
 10
245.5007612233304
 20
20.5674282165765
 30
0.0
  0
VERTEX
  5
185
330
180
100
AcDbEntity
  8
Pockets 8mm deep
100
AcDbVertex
100
AcDb2dVertex
 10
245.5007612233304
 20
10.5674282165765
 30
0.0
  0
SEQEND
  5
186
330
180
100
AcDbEntity
  8
Pockets 8mm deep
  0
POLYLINE
  5
187
330
1F
100
AcDbEntity
  8
Pockets 8mm deep
100
AcDb2dPolyline
 66
     1
 10
0.0
 20
0.0
 30
0.0
  0
VERTEX
  5
188
330
187
100
AcDbEntity
  8
Pockets 8mm deep
100
AcDbVertex
100
AcDb2dVertex
 10
245.5007612233304
 20
39.5674282165765
 30
0.0
  0
VERTEX
  5
189
330
187
100
AcDbEntity
  8
Pockets 8mm deep
100
AcDbVertex
100
AcDb2dVertex
 10
290.5007612233305
 20
39.5674282165765
 30
0.0
  0
VERTEX
  5
18A
330
187
100
AcDbEntity
  8
Pockets 8mm deep
100
AcDbVertex
100
AcDb2dVertex
 10
290.5007612233305
 20
49.5674282165765
 30
0.0
  0
VERTEX
  5
18B
330
187
100
AcDbEntity
  8
Pockets 8mm deep
100
AcDbVertex
100
AcDb2dVertex
 10
245.5007612233304
 20
49.5674282165765
 30
0.0
  0
VERTEX
  5
18C
330
187
100
AcDbEntity
  8
Pockets 8mm deep
100
AcDbVertex
100
AcDb2dVertex
 10
245.5007612233304
 20
39.5674282165765
 30
0.0
  0
SEQEND
  5
18D
330
187
100
AcDbEntity
  8
Pockets 8mm deep
  0
POLYLINE
  5
18E
330
1F
100
AcDbEntity
  8
Pockets 8mm deep
100
AcDb2dPolyline
 66
     1
 10
0.0
 20
0.0
 30
0.0
  0
VERTEX
  5
18F
330
18E
100
AcDbEntity
  8
Pockets 8mm deep
100
AcDbVertex
100
AcDb2dVertex
 10
245.5007612233304
 20
68.5674282165765
 30
0.0
  0
VERTEX
  5
190
330
18E
100
AcDbEntity
  8
Pockets 8mm deep
100
AcDbVertex
100
AcDb2dVertex
 10
290.5007612233305
 20
68.5674282165765
 30
0.0
  0
VERTEX
  5
191
330
18E
100
AcDbEntity
  8
Pockets 8mm deep
100
AcDbVertex
100
AcDb2dVertex
 10
290.5007612233305
 20
78.5674282165765
 30
0.0
  0
VERTEX
  5
192
330
18E
100
AcDbEntity
  8
Pockets 8mm deep
100
AcDbVertex
100
AcDb2dVertex
 10
245.5007612233304
 20
78.5674282165765
 30
0.0
  0
VERTEX
  5
193
330
18E
100
AcDbEntity
  8
Pockets 8mm deep
100
AcDbVertex
100
AcDb2dVertex
 10
245.5007612233304
 20
68.5674282165765
 30
0.0
  0
SEQEND
  5
194
330
18E
100
AcDbEntity
  8
Pockets 8mm deep
  0
POLYLINE
  5
195
330
1F
100
AcDbEntity
  8
Pockets 8mm deep
100
AcDb2dPolyline
 66
     1
 10
0.0
 20
0.0
 30
0.0
  0
VERTEX
  5
196
330
195
100
AcDbEntity
  8
Pockets 8mm deep
100
AcDbVertex
100
AcDb2dVertex
 10
245.5007612233304
 20
97.5674282165765
 30
0.0
  0
VERTEX
  5
197
330
195
100
AcDbEntity
  8
Pockets 8mm deep
100
AcDbVertex
100
AcDb2dVertex
 10
290.5007612233305
 20
97.5674282165765
 30
0.0
  0
VERTEX
  5
198
330
195
100
AcDbEntity
  8
Pockets 8mm deep
100
AcDbVertex
100
AcDb2dVertex
 10
290.5007612233305
 20
107.5674282165765
 30
0.0
  0
VERTEX
  5
199
330
195
100
AcDbEntity
  8
Pockets 8mm deep
100
AcDbVertex
100
AcDb2dVertex
 10
245.5007612233304
 20
107.5674282165765
 30
0.0
  0
VERTEX
  5
19A
330
195
100
AcDbEntity
  8
Pockets 8mm deep
100
AcDbVertex
100
AcDb2dVertex
 10
245.5007612233304
 20
97.5674282165765
 30
0.0
  0
SEQEND
  5
19B
330
195
100
AcDbEntity
  8
Pockets 8mm deep
  0
POLYLINE
  5
19C
330
1F
100
AcDbEntity
  8
Pockets 8mm deep
100
AcDb2dPolyline
 66
     1
 10
0.0
 20
0.0
 30
0.0
  0
VERTEX
  5
19D
330
19C
100
AcDbEntity
  8
Pockets 8mm deep
100
AcDbVertex
100
AcDb2dVertex
 10
245.5007612233304
 20
126.5674282165765
 30
0.0
  0
VERTEX
  5
19E
330
19C
100
AcDbEntity
  8
Pockets 8mm deep
100
AcDbVertex
100
AcDb2dVertex
 10
290.5007612233305
 20
126.5674282165765
 30
0.0
  0
VERTEX
  5
19F
330
19C
100
AcDbEntity
  8
Pockets 8mm deep
100
AcDbVertex
100
AcDb2dVertex
 10
290.5007612233305
 20
136.5674282165765
 30
0.0
  0
VERTEX
  5
1A0
330
19C
100
AcDbEntity
  8
Pockets 8mm deep
100
AcDbVertex
100
AcDb2dVertex
 10
245.5007612233304
 20
136.5674282165765
 30
0.0
  0
VERTEX
  5
1A1
330
19C
100
AcDbEntity
  8
Pockets 8mm deep
100
AcDbVertex
100
AcDb2dVertex
 10
245.5007612233304
 20
126.5674282165765
 30
0.0
  0
SEQEND
  5
1A2
330
19C
100
AcDbEntity
  8
Pockets 8mm deep
  0
POLYLINE
  5
1A3
330
1F
100
AcDbEntity
  8
Pockets 8mm deep
100
AcDb2dPolyline
 66
     1
 10
0.0
 20
0.0
 30
0.0
  0
VERTEX
  5
1A4
330
1A3
100
AcDbEntity
  8
Pockets 8mm deep
100
AcDbVertex
100
AcDb2dVertex
 10
245.5007612233304
 20
155.5674282165765
 30
0.0
  0
VERTEX
  5
1A5
330
1A3
100
AcDbEntity
  8
Pockets 8mm deep
100
AcDbVertex
100
AcDb2dVertex
 10
290.5007612233305
 20
155.5674282165765
 30
0.0
  0
VERTEX
  5
1A6
330
1A3
100
AcDbEntity
  8
Pockets 8mm deep
100
AcDbVertex
100
AcDb2dVertex
 10
290.5007612233305
 20
165.5674282165765
 30
0.0
  0
VERTEX
  5
1A7
330
1A3
100
AcDbEntity
  8
Pockets 8mm deep
100
AcDbVertex
100
AcDb2dVertex
 10
245.5007612233304
 20
165.5674282165765
 30
0.0
  0
VERTEX
  5
1A8
330
1A3
100
AcDbEntity
  8
Pockets 8mm deep
100
AcDbVertex
100
AcDb2dVertex
 10
245.5007612233304
 20
155.5674282165765
 30
0.0
  0
SEQEND
  5
1A9
330
1A3
100
AcDbEntity
  8
Pockets 8mm deep
  0
POLYLINE
  5
1AA
330
1F
100
AcDbEntity
  8
Pockets 8mm deep
100
AcDb2dPolyline
 66
     1
 10
0.0
 20
0.0
 30
0.0
  0
VERTEX
  5
1AB
330
1AA
100
AcDbEntity
  8
Pockets 8mm deep
100
AcDbVertex
100
AcDb2dVertex
 10
245.5007612233304
 20
184.5674282165765
 30
0.0
  0
VERTEX
  5
1AC
330
1AA
100
AcDbEntity
  8
Pockets 8mm deep
100
AcDbVertex
100
AcDb2dVertex
 10
290.5007612233305
 20
184.5674282165765
 30
0.0
  0
VERTEX
  5
1AD
330
1AA
100
AcDbEntity
  8
Pockets 8mm deep
100
AcDbVertex
100
AcDb2dVertex
 10
290.5007612233305
 20
194.5674282165765
 30
0.0
  0
VERTEX
  5
1AE
330
1AA
100
AcDbEntity
  8
Pockets 8mm deep
100
AcDbVertex
100
AcDb2dVertex
 10
245.5007612233304
 20
194.5674282165765
 30
0.0
  0
VERTEX
  5
1AF
330
1AA
100
AcDbEntity
  8
Pockets 8mm deep
100
AcDbVertex
100
AcDb2dVertex
 10
245.5007612233304
 20
184.5674282165765
 30
0.0
  0
SEQEND
  5
1B0
330
1AA
100
AcDbEntity
  8
Pockets 8mm deep
  0
POLYLINE
  5
1B1
330
1F
100
AcDbEntity
  8
Pockets 8mm deep
100
AcDb2dPolyline
 66
     1
 10
0.0
 20
0.0
 30
0.0
  0
VERTEX
  5
1B2
330
1B1
100
AcDbEntity
  8
Pockets 8mm deep
100
AcDbVertex
100
AcDb2dVertex
 10
245.5007612233304
 20
213.5674282165765
 30
0.0
  0
VERTEX
  5
1B3
330
1B1
100
AcDbEntity
  8
Pockets 8mm deep
100
AcDbVertex
100
AcDb2dVertex
 10
290.5007612233305
 20
213.5674282165765
 30
0.0
  0
VERTEX
  5
1B4
330
1B1
100
AcDbEntity
  8
Pockets 8mm deep
100
AcDbVertex
100
AcDb2dVertex
 10
290.5007612233305
 20
223.5674282165765
 30
0.0
  0
VERTEX
  5
1B5
330
1B1
100
AcDbEntity
  8
Pockets 8mm deep
100
AcDbVertex
100
AcDb2dVertex
 10
245.5007612233304
 20
223.5674282165765
 30
0.0
  0
VERTEX
  5
1B6
330
1B1
100
AcDbEntity
  8
Pockets 8mm deep
100
AcDbVertex
100
AcDb2dVertex
 10
245.5007612233304
 20
213.5674282165765
 30
0.0
  0
SEQEND
  5
1B7
330
1B1
100
AcDbEntity
  8
Pockets 8mm deep
  0
POLYLINE
  5
1B8
330
1F
100
AcDbEntity
  8
Pockets 8mm deep
100
AcDb2dPolyline
 66
     1
 10
0.0
 20
0.0
 30
0.0
  0
VERTEX
  5
1B9
330
1B8
100
AcDbEntity
  8
Pockets 8mm deep
100
AcDbVertex
100
AcDb2dVertex
 10
245.5007612233304
 20
242.5674282165764
 30
0.0
  0
VERTEX
  5
1BA
330
1B8
100
AcDbEntity
  8
Pockets 8mm deep
100
AcDbVertex
100
AcDb2dVertex
 10
290.5007612233305
 20
242.5674282165764
 30
0.0
  0
VERTEX
  5
1BB
330
1B8
100
AcDbEntity
  8
Pockets 8mm deep
100
AcDbVertex
100
AcDb2dVertex
 10
290.5007612233305
 20
252.5674282165764
 30
0.0
  0
VERTEX
  5
1BC
330
1B8
100
AcDbEntity
  8
Pockets 8mm deep
100
AcDbVertex
100
AcDb2dVertex
 10
245.5007612233304
 20
252.5674282165764
 30
0.0
  0
VERTEX
  5
1BD
330
1B8
100
AcDbEntity
  8
Pockets 8mm deep
100
AcDbVertex
100
AcDb2dVertex
 10
245.5007612233304
 20
242.5674282165764
 30
0.0
  0
SEQEND
  5
1BE
330
1B8
100
AcDbEntity
  8
Pockets 8mm deep
  0
ENDSEC
  0
SECTION
  2
OBJECTS
  0
DICTIONARY
  5
C
330
0
100
AcDbDictionary
281
     1
  3
ACAD_GROUP
350
D
  3
ACAD_LAYOUT
350
1A
  3
ACAD_MATERIAL
350
3B
  3
ACAD_MLEADERSTYLE
350
1E6
  3
ACAD_MLINESTYLE
350
17
  3
ACAD_PLOTSETTINGS
350
19
  3
ACAD_PLOTSTYLENAME
350
E
  3
ACAD_TABLESTYLE
350
1E5
  3
ACAD_VISUALSTYLE
350
2A
  0
DICTIONARY
  5
D
102
{ACAD_REACTORS
330
C
102
}
330
C
100
AcDbDictionary
281
     1
  0
DICTIONARY
  5
1A
102
{ACAD_REACTORS
330
C
102
}
330
C
100
AcDbDictionary
281
     1
  3
Layout1
350
1E
  3
Layout2
350
26
  3
Model
350
22
  0
DICTIONARY
  5
3B
102
{ACAD_REACTORS
330
C
102
}
330
C
100
AcDbDictionary
281
     1
  3
ByBlock
350
3D
  3
ByLayer
350
3C
  3
Global
350
3E
  0
DICTIONARY
  5
1E6
102
{ACAD_REACTORS
330
C
102
}
330
C
100
AcDbDictionary
281
     1
  0
DICTIONARY
  5
17
102
{ACAD_REACTORS
330
C
102
}
330
C
100
AcDbDictionary
281
     1
  3
Standard
350
18
  0
DICTIONARY
  5
19
102
{ACAD_REACTORS
330
C
102
}
330
C
100
AcDbDictionary
281
     1
  0
ACDBDICTIONARYWDFLT
  5
E
102
{ACAD_REACTORS
330
C
102
}
330
C
100
AcDbDictionary
281
     1
  3
Normal
350
F
100
AcDbDictionaryWithDefault
340
F
  0
DICTIONARY
  5
1E5
102
{ACAD_REACTORS
330
C
102
}
330
C
100
AcDbDictionary
281
     1
  0
DICTIONARY
  5
2A
102
{ACAD_REACTORS
330
C
102
}
330
C
100
AcDbDictionary
281
     1
  3
2dWireframe
350
2F
  3
3D Hidden
350
31
  3
3dWireframe
350
30
  3
Basic
350
32
  3
Brighten
350
36
  3
ColorChange
350
3A
  3
Conceptual
350
34
  3
Dim
350
35
  3
Facepattern
350
39
  3
Flat
350
2B
  3
FlatWithEdges
350
2C
  3
Gouraud
350
2D
  3
GouraudWithEdges
350
2E
  3
Linepattern
350
38
  3
Realistic
350
33
  3
Thicken
350
37
  0
LAYOUT
  5
1E
102
{ACAD_REACTORS
330
1A
102
}
330
1A
100
AcDbPlotSettings
  1

  2
none_device
  4

  6

 40
0.0
 41
0.0
 42
0.0
 43
0.0
 44
0.0
 45
0.0
 46
0.0
 47
0.0
 48
0.0
 49
0.0
140
0.0
141
0.0
142
1.0
143
1.0
 70
   688
 72
     0
 73
     0
 74
     5
  7

 75
    16
 76
     0
 77
     2
 78
   300
147
1.0
148
0.0
149
0.0
100
AcDbLayout
  1
Layout1
 70
     1
 71
     1
 10
0.0
 20
0.0
 11
12.0
 21
9.0
 12
0.0
 22
0.0
 32
0.0
 14
1.000000000000000E+20
 24
1.000000000000000E+20
 34
1.000000000000000E+20
 15
-1.000000000000000E+20
 25
-1.000000000000000E+20
 35
-1.000000000000000E+20
146
0.0
 13
0.0
 23
0.0
 33
0.0
 16
1.0
 26
0.0
 36
0.0
 17
0.0
 27
1.0
 37
0.0
 76
     0
330
1B
  0
LAYOUT
  5
26
102
{ACAD_REACTORS
330
1A
102
}
330
1A
100
AcDbPlotSettings
  1

  2
none_device
  4

  6

 40
0.0
 41
0.0
 42
0.0
 43
0.0
 44
0.0
 45
0.0
 46
0.0
 47
0.0
 48
0.0
 49
0.0
140
0.0
141
0.0
142
1.0
143
1.0
 70
   688
 72
     0
 73
     0
 74
     5
  7

 75
    16
 76
     0
 77
     2
 78
   300
147
1.0
148
0.0
149
0.0
100
AcDbLayout
  1
Layout2
 70
     1
 71
     2
 10
0.0
 20
0.0
 11
0.0
 21
0.0
 12
0.0
 22
0.0
 32
0.0
 14
0.0
 24
0.0
 34
0.0
 15
0.0
 25
0.0
 35
0.0
146
0.0
 13
0.0
 23
0.0
 33
0.0
 16
1.0
 26
0.0
 36
0.0
 17
0.0
 27
1.0
 37
0.0
 76
     0
330
23
  0
LAYOUT
  5
22
102
{ACAD_REACTORS
330
1A
102
}
330
1A
100
AcDbPlotSettings
  1

  2
none_device
  4

  6

 40
0.0
 41
0.0
 42
0.0
 43
0.0
 44
0.0
 45
0.0
 46
0.0
 47
0.0
 48
0.0
 49
0.0
140
0.0
141
0.0
142
1.0
143
1.0
 70
  1712
 72
     0
 73
     0
 74
     0
  7

 75
     0
 76
     0
 77
     2
 78
   300
147
1.0
148
0.0
149
0.0
100
AcDbLayout
  1
Model
 70
     1
 71
     0
 10
0.0
 20
0.0
 11
12.0
 21
9.0
 12
0.0
 22
0.0
 32
0.0
 14
0.0000055041216811
 24
-0.0000000000001137
 34
0.0
 15
373.0000056257684
 25
290.4999999999999
 35
0.0
146
0.0
 13
0.0
 23
0.0
 33
0.0
 16
1.0
 26
0.0
 36
0.0
 17
0.0
 27
1.0
 37
0.0
 76
     0
330
1F
331
29
  0
MATERIAL
  5
3D
102
{ACAD_REACTORS
330
3B
102
}
102
{ACAD_XDICTIONARY
360
1E1
102
}
330
3B
100
AcDbMaterial
  1
ByBlock
  0
MATERIAL
  5
3C
102
{ACAD_REACTORS
330
3B
102
}
102
{ACAD_XDICTIONARY
360
1DF
102
}
330
3B
100
AcDbMaterial
  1
ByLayer
  0
MATERIAL
  5
3E
102
{ACAD_REACTORS
330
3B
102
}
102
{ACAD_XDICTIONARY
360
1E3
102
}
330
3B
100
AcDbMaterial
  1
Global
  0
MLINESTYLE
  5
18
102
{ACAD_REACTORS
330
17
102
}
330
17
100
AcDbMlineStyle
  2
Standard
 70
     0
  3

 62
   256
 51
90.0
 52
90.0
 71
     2
 49
0.5
 62
   256
  6
BYLAYER
 49
-0.5
 62
   256
  6
BYLAYER
  0
ACDBPLACEHOLDER
  5
F
102
{ACAD_REACTORS
330
E
102
}
330
E
  0
VISUALSTYLE
  5
2F
102
{ACAD_REACTORS
330
2A
102
}
102
{ACAD_XDICTIONARY
360
1C7
102
}
330
2A
100
AcDbVisualStyle
  2
2dWireframe
 70
     4
 71
     0
 72
     2
 73
     0
 90
        0
 40
-0.6
 41
-30.0
 62
     5
 63
     7
421
 16777215
 74
     1
 91
        4
 64
     7
 65
   257
 75
     1
175
     1
 42
1.0
 92
        0
 66
   257
 43
1.0
 76
     1
 77
     6
 78
     2
 67
     7
 79
     5
170
     0
171
     0
290
     0
174
     0
 93
        1
 44
0.0
173
     0
291
     0
 45
0.0
1001
ACAD
1000
AcDbSavedByObjectVersion
1070
     0
  0
VISUALSTYLE
  5
31
102
{ACAD_REACTORS
330
2A
102
}
102
{ACAD_XDICTIONARY
360
1CB
102
}
330
2A
100
AcDbVisualStyle
  2
3D Hidden
 70
     6
 71
     1
 72
     2
 73
     2
 90
        0
 40
-0.6
 41
-30.0
 62
     5
 63
     7
421
 16777215
 74
     2
 91
        2
 64
     7
 65
   257
 75
     2
175
     1
 42
40.0
 92
        0
 66
   257
 43
1.0
 76
     1
 77
     6
 78
     2
 67
     7
 79
     3
170
     0
171
     0
290
     0
174
     0
 93
        1
 44
0.0
173
     0
291
     0
 45
0.0
1001
ACAD
1000
AcDbSavedByObjectVersion
1070
     0
  0
VISUALSTYLE
  5
30
102
{ACAD_REACTORS
330
2A
102
}
102
{ACAD_XDICTIONARY
360
1C9
102
}
330
2A
100
AcDbVisualStyle
  2
3dWireframe
 70
     5
 71
     0
 72
     2
 73
     0
 90
        0
 40
-0.6
 41
-30.0
 62
     5
 63
     7
421
 16777215
 74
     1
 91
        4
 64
     7
 65
   257
 75
     1
175
     1
 42
1.0
 92
        0
 66
   257
 43
1.0
 76
     1
 77
     6
 78
     2
 67
     7
 79
     5
170
     0
171
     0
290
     0
174
     0
 93
        1
 44
0.0
173
     0
291
     0
 45
0.0
1001
ACAD
1000
AcDbSavedByObjectVersion
1070
     0
  0
VISUALSTYLE
  5
32
102
{ACAD_REACTORS
330
2A
102
}
102
{ACAD_XDICTIONARY
360
1CD
102
}
330
2A
100
AcDbVisualStyle
  2
Basic
 70
     7
 71
     1
 72
     0
 73
     1
 90
        0
 40
-0.6
 41
-30.0
 62
     5
 63
     7
421
 16777215
 74
     0
 91
        4
 64
     7
 65
   257
 75
     1
175
     1
 42
1.0
 92
        8
 66
     7
 43
1.0
 76
     1
 77
     6
 78
     2
 67
     7
 79
     5
170
     0
171
     0
290
     0
174
     0
 93
        1
 44
0.0
173
     0
291
     1
 45
0.0
1001
ACAD
1000
AcDbSavedByObjectVersion
1070
     0
  0
VISUALSTYLE
  5
36
102
{ACAD_REACTORS
330
2A
102
}
102
{ACAD_XDICTIONARY
360
1D5
102
}
330
2A
100
AcDbVisualStyle
  2
Brighten
 70
    12
 71
     2
 72
     2
 73
     0
 90
        0
 40
-0.6
 41
-30.0
 62
     5
 63
     7
421
 16777215
 74
     1
 91
        4
 64
     7
 65
   257
 75
     1
175
     1
 42
1.0
 92
        8
 66
     7
 43
1.0
 76
     1
 77
     6
 78
     2
 67
     7
 79
     5
170
     0
171
     0
290
     0
174
     0
 93
        1
 44
50.0
173
     0
291
     1
 45
0.0
1001
ACAD
1000
AcDbSavedByObjectVersion
1070
     0
  0
VISUALSTYLE
  5
3A
102
{ACAD_REACTORS
330
2A
102
}
102
{ACAD_XDICTIONARY
360
1DD
102
}
330
2A
100
AcDbVisualStyle
  2
ColorChange
 70
    16
 71
     2
 72
     2
 73
     3
 90
        0
 40
-0.6
 41
-30.0
 62
     5
 63
     8
421
  8421504
 74
     1
 91
        4
 64
     7
 65
   257
 75
     1
175
     1
 42
1.0
 92
        8
 66
     8
424
  8421504
 43
1.0
 76
     1
 77
     6
 78
     2
 67
     7
 79
     5
170
     0
171
     0
290
     0
174
     0
 93
        1
 44
0.0
173
     0
291
     1
 45
0.0
1001
ACAD
1000
AcDbSavedByObjectVersion
1070
     0
  0
VISUALSTYLE
  5
34
102
{ACAD_REACTORS
330
2A
102
}
102
{ACAD_XDICTIONARY
360
1D1
102
}
330
2A
100
AcDbVisualStyle
  2
Conceptual
 70
     9
 71
     3
 72
     2
 73
     0
 90
        0
 40
-0.6
 41
-30.0
 62
     5
 63
     7
421
 16777215
 74
     2
 91
        2
 64
     7
 65
   257
 75
     1
175
     1
 42
40.0
 92
        8
 66
     7
 43
1.0
 76
     1
 77
     6
 78
     2
 67
     7
 79
     3
170
     0
171
     0
290
     0
174
     0
 93
        1
 44
0.0
173
     0
291
     0
 45
0.0
1001
ACAD
1000
AcDbSavedByObjectVersion
1070
     0
  0
VISUALSTYLE
  5
35
102
{ACAD_REACTORS
330
2A
102
}
102
{ACAD_XDICTIONARY
360
1D3
102
}
330
2A
100
AcDbVisualStyle
  2
Dim
 70
    11
 71
     2
 72
     2
 73
     0
 90
        0
 40
-0.6
 41
-30.0
 62
     5
 63
     7
421
 16777215
 74
     1
 91
        4
 64
     7
 65
   257
 75
     1
175
     1
 42
1.0
 92
        8
 66
     7
 43
1.0
 76
     1
 77
     6
 78
     2
 67
     7
 79
     5
170
     0
171
     0
290
     0
174
     0
 93
        1
 44
-50.0
173
     0
291
     1
 45
0.0
1001
ACAD
1000
AcDbSavedByObjectVersion
1070
     0
  0
VISUALSTYLE
  5
39
102
{ACAD_REACTORS
330
2A
102
}
102
{ACAD_XDICTIONARY
360
1DB
102
}
330
2A
100
AcDbVisualStyle
  2
Facepattern
 70
    15
 71
     2
 72
     2
 73
     0
 90
        0
 40
-0.6
 41
-30.0
 62
     5
 63
     7
421
 16777215
 74
     1
 91
        4
 64
     7
 65
   257
 75
     1
175
     1
 42
1.0
 92
        8
 66
     7
 43
1.0
 76
     1
 77
     6
 78
     2
 67
     7
 79
     5
170
     0
171
     0
290
     0
174
     0
 93
        1
 44
0.0
173
     0
291
     1
 45
0.0
1001
ACAD
1000
AcDbSavedByObjectVersion
1070
     0
  0
VISUALSTYLE
  5
2B
102
{ACAD_REACTORS
330
2A
102
}
102
{ACAD_XDICTIONARY
360
1BF
102
}
330
2A
100
AcDbVisualStyle
  2
Flat
 70
     0
 71
     2
 72
     1
 73
     1
 90
        2
 40
-0.6
 41
30.0
 62
     5
 63
     7
421
 16777215
 74
     0
 91
        4
 64
     7
 65
   257
 75
     1
175
     1
 42
1.0
 92
        8
 66
     7
 43
1.0
 76
     1
 77
     6
 78
     2
 67
     7
 79
     5
170
     0
171
     0
290
     0
174
     0
 93
       13
 44
0.0
173
     0
291
     1
 45
0.0
1001
ACAD
1000
AcDbSavedByObjectVersion
1070
     0
  0
VISUALSTYLE
  5
2C
102
{ACAD_REACTORS
330
2A
102
}
102
{ACAD_XDICTIONARY
360
1C1
102
}
330
2A
100
AcDbVisualStyle
  2
FlatWithEdges
 70
     1
 71
     2
 72
     1
 73
     1
 90
        2
 40
-0.6
 41
30.0
 62
     5
 63
     7
421
 16777215
 74
     1
 91
        4
 64
     7
 65
   257
 75
     1
175
     1
 42
1.0
 92
        0
 66
   257
 43
1.0
 76
     1
 77
     6
 78
     2
 67
     7
 79
     5
170
     0
171
     0
290
     0
174
     0
 93
       13
 44
0.0
173
     0
291
     1
 45
0.0
1001
ACAD
1000
AcDbSavedByObjectVersion
1070
     0
  0
VISUALSTYLE
  5
2D
102
{ACAD_REACTORS
330
2A
102
}
102
{ACAD_XDICTIONARY
360
1C3
102
}
330
2A
100
AcDbVisualStyle
  2
Gouraud
 70
     2
 71
     2
 72
     2
 73
     1
 90
        2
 40
-0.6
 41
30.0
 62
     5
 63
     7
421
 16777215
 74
     0
 91
        4
 64
     7
 65
   257
 75
     1
175
     1
 42
1.0
 92
        0
 66
     7
 43
1.0
 76
     1
 77
     6
 78
     2
 67
     7
 79
     5
170
     0
171
     0
290
     0
174
     0
 93
       13
 44
0.0
173
     0
291
     1
 45
0.0
1001
ACAD
1000
AcDbSavedByObjectVersion
1070
     0
  0
VISUALSTYLE
  5
2E
102
{ACAD_REACTORS
330
2A
102
}
102
{ACAD_XDICTIONARY
360
1C5
102
}
330
2A
100
AcDbVisualStyle
  2
GouraudWithEdges
 70
     3
 71
     2
 72
     2
 73
     1
 90
        2
 40
-0.6
 41
30.0
 62
     5
 63
     7
421
 16777215
 74
     1
 91
        4
 64
     7
 65
   257
 75
     1
175
     1
 42
1.0
 92
        0
 66
   257
 43
1.0
 76
     1
 77
     6
 78
     2
 67
     7
 79
     5
170
     0
171
     0
290
     0
174
     0
 93
       13
 44
0.0
173
     0
291
     1
 45
0.0
1001
ACAD
1000
AcDbSavedByObjectVersion
1070
     0
  0
VISUALSTYLE
  5
38
102
{ACAD_REACTORS
330
2A
102
}
102
{ACAD_XDICTIONARY
360
1D9
102
}
330
2A
100
AcDbVisualStyle
  2
Linepattern
 70
    14
 71
     2
 72
     2
 73
     0
 90
        0
 40
-0.6
 41
-30.0
 62
     5
 63
     7
421
 16777215
 74
     1
 91
        4
 64
     7
 65
   257
 75
     7
175
     7
 42
1.0
 92
        8
 66
     7
 43
1.0
 76
     1
 77
     6
 78
     2
 67
     7
 79
     5
170
     0
171
     0
290
     0
174
     0
 93
        1
 44
0.0
173
     0
291
     1
 45
0.0
1001
ACAD
1000
AcDbSavedByObjectVersion
1070
     0
  0
VISUALSTYLE
  5
33
102
{ACAD_REACTORS
330
2A
102
}
102
{ACAD_XDICTIONARY
360
1CF
102
}
330
2A
100
AcDbVisualStyle
  2
Realistic
 70
     8
 71
     2
 72
     2
 73
     0
 90
        0
 40
-0.6
 41
-30.0
 62
     5
 63
     7
421
 16777215
 74
     1
 91
        0
 64
     7
 65
   257
 75
     1
175
     1
 42
1.0
 92
        8
 66
     8
424
  7895160
 43
1.0
 76
     1
 77
     6
 78
     2
 67
     7
 79
     5
170
     0
171
     0
290
     0
174
     0
 93
       13
 44
0.0
173
     0
291
     0
 45
0.0
1001
ACAD
1000
AcDbSavedByObjectVersion
1070
     0
  0
VISUALSTYLE
  5
37
102
{ACAD_REACTORS
330
2A
102
}
102
{ACAD_XDICTIONARY
360
1D7
102
}
330
2A
100
AcDbVisualStyle
  2
Thicken
 70
    13
 71
     2
 72
     2
 73
     0
 90
        0
 40
-0.6
 41
-30.0
 62
     5
 63
     7
421
 16777215
 74
     1
 91
        4
 64
     7
 65
   257
 75
     1
175
     1
 42
1.0
 92
       12
 66
     7
 43
1.0
 76
     1
 77
     6
 78
     2
 67
     7
 79
     5
170
     0
171
     0
290
     0
174
     0
 93
        1
 44
0.0
173
     0
291
     1
 45
0.0
1001
ACAD
1000
AcDbSavedByObjectVersion
1070
     0
  0
DICTIONARY
  5
1E1
330
3D
100
AcDbDictionary
280
     1
281
     1
  3
ACAD_XREC_ROUNDTRIP
360
1E2
  0
DICTIONARY
  5
1DF
330
3C
100
AcDbDictionary
280
     1
281
     1
  3
ACAD_XREC_ROUNDTRIP
360
1E0
  0
DICTIONARY
  5
1E3
330
3E
100
AcDbDictionary
280
     1
281
     1
  3
ACAD_XREC_ROUNDTRIP
360
1E4
  0
DICTIONARY
  5
1C7
330
2F
100
AcDbDictionary
280
     1
281
     1
  3
ACAD_XREC_ROUNDTRIP
360
1C8
  0
DICTIONARY
  5
1CB
330
31
100
AcDbDictionary
280
     1
281
     1
  3
ACAD_XREC_ROUNDTRIP
360
1CC
  0
DICTIONARY
  5
1C9
330
30
100
AcDbDictionary
280
     1
281
     1
  3
ACAD_XREC_ROUNDTRIP
360
1CA
  0
DICTIONARY
  5
1CD
330
32
100
AcDbDictionary
280
     1
281
     1
  3
ACAD_XREC_ROUNDTRIP
360
1CE
  0
DICTIONARY
  5
1D5
330
36
100
AcDbDictionary
280
     1
281
     1
  3
ACAD_XREC_ROUNDTRIP
360
1D6
  0
DICTIONARY
  5
1DD
330
3A
100
AcDbDictionary
280
     1
281
     1
  3
ACAD_XREC_ROUNDTRIP
360
1DE
  0
DICTIONARY
  5
1D1
330
34
100
AcDbDictionary
280
     1
281
     1
  3
ACAD_XREC_ROUNDTRIP
360
1D2
  0
DICTIONARY
  5
1D3
330
35
100
AcDbDictionary
280
     1
281
     1
  3
ACAD_XREC_ROUNDTRIP
360
1D4
  0
DICTIONARY
  5
1DB
330
39
100
AcDbDictionary
280
     1
281
     1
  3
ACAD_XREC_ROUNDTRIP
360
1DC
  0
DICTIONARY
  5
1BF
330
2B
100
AcDbDictionary
280
     1
281
     1
  3
ACAD_XREC_ROUNDTRIP
360
1C0
  0
DICTIONARY
  5
1C1
330
2C
100
AcDbDictionary
280
     1
281
     1
  3
ACAD_XREC_ROUNDTRIP
360
1C2
  0
DICTIONARY
  5
1C3
330
2D
100
AcDbDictionary
280
     1
281
     1
  3
ACAD_XREC_ROUNDTRIP
360
1C4
  0
DICTIONARY
  5
1C5
330
2E
100
AcDbDictionary
280
     1
281
     1
  3
ACAD_XREC_ROUNDTRIP
360
1C6
  0
DICTIONARY
  5
1D9
330
38
100
AcDbDictionary
280
     1
281
     1
  3
ACAD_XREC_ROUNDTRIP
360
1DA
  0
DICTIONARY
  5
1CF
330
33
100
AcDbDictionary
280
     1
281
     1
  3
ACAD_XREC_ROUNDTRIP
360
1D0
  0
DICTIONARY
  5
1D7
330
37
100
AcDbDictionary
280
     1
281
     1
  3
ACAD_XREC_ROUNDTRIP
360
1D8
  0
XRECORD
  5
1E2
102
{ACAD_REACTORS
330
1E1
102
}
330
1E1
100
AcDbXrecord
280
     1
102
MATERIAL
148
0.0
149
0.0
149
0.0
 93
        0
 94
      127
282
     0
 72
     1
 77
     1
171
     1
175
     1
179
     1
273
     0
  0
XRECORD
  5
1E0
102
{ACAD_REACTORS
330
1DF
102
}
330
1DF
100
AcDbXrecord
280
     1
102
MATERIAL
148
0.0
149
0.0
149
0.0
 93
        0
 94
      127
282
     0
 72
     1
 77
     1
171
     1
175
     1
179
     1
273
     0
  0
XRECORD
  5
1E4
102
{ACAD_REACTORS
330
1E3
102
}
330
1E3
100
AcDbXrecord
280
     1
102
MATERIAL
148
0.0
149
0.0
149
0.0
 93
        0
 94
      127
282
     0
 72
     1
 77
     1
171
     1
175
     1
179
     1
273
     0
  0
XRECORD
  5
1C8
102
{ACAD_REACTORS
330
1C7
102
}
330
1C7
100
AcDbXrecord
280
     1
102
RTVSPropertyOp0
 70
     1
102
RTVSPropertyOp1
 70
     1
102
RTVSPropertyOp2
 70
     1
102
RTVSPropertyOp3
 70
     1
102
RTVSPropertyOp4
 70
     1
102
RTVSPropertyOp5
 70
     1
102
RTVSPropertyOp6
 70
     1
102
RTVSPropertyOp7
 70
     1
102
RTVSPropertyOp8
 70
     1
102
RTVSPropertyOp9
 70
     1
102
RTVSPropertyOp10
 70
     1
102
RTVSPropertyOp11
 70
     1
102
RTVSPropertyOp12
 70
     1
102
RTVSPropertyOp13
 70
     1
102
RTVSPropertyOp14
 70
     1
102
RTVSPropertyOp15
 70
     1
102
RTVSPropertyOp16
 70
     1
102
RTVSPropertyOp17
 70
     1
102
RTVSPropertyOp18
 70
     1
102
RTVSPropertyOp19
 70
     1
102
RTVSPropertyOp20
 70
     1
102
RTVSPropertyOp21
 70
     1
102
RTVSPropertyOp22
 70
     1
102
RTVSPropertyOp23
 70
     1
102
RTVSPropertyOp24
 70
     1
102
RTVSPropertyOp25
 70
     1
102
RTVSPropertyOp26
 70
     1
102
RTVSPropertyOp27
 70
     1
102
RTVSPropertyOp28
 70
     1
102
RTVSPropertyOp29
 70
     1
102
RTVSPropertyOp30
 70
     1
102
RTVSPropertyOp31
 70
     1
102
RTVSPropertyOp32
 70
     1
  0
XRECORD
  5
1CC
102
{ACAD_REACTORS
330
1CB
102
}
330
1CB
100
AcDbXrecord
280
     1
102
RTVSPropertyOp0
 70
     1
102
RTVSPropertyOp1
 70
     1
102
RTVSPropertyOp2
 70
     1
102
RTVSPropertyOp3
 70
     1
102
RTVSPropertyOp4
 70
     1
102
RTVSPropertyOp5
 70
     1
102
RTVSPropertyOp6
 70
     1
102
RTVSPropertyOp7
 70
     1
102
RTVSPropertyOp8
 70
     1
102
RTVSPropertyOp9
 70
     1
102
RTVSPropertyOp10
 70
     1
102
RTVSPropertyOp11
 70
     1
102
RTVSPropertyOp12
 70
     1
102
RTVSPropertyOp13
 70
     1
102
RTVSPropertyOp14
 70
     1
102
RTVSPropertyOp15
 70
     1
102
RTVSPropertyOp16
 70
     1
102
RTVSPropertyOp17
 70
     1
102
RTVSPropertyOp18
 70
     1
102
RTVSPropertyOp19
 70
     1
102
RTVSPropertyOp20
 70
     1
102
RTVSPropertyOp21
 70
     1
102
RTVSPropertyOp22
 70
     1
102
RTVSPropertyOp23
 70
     1
102
RTVSPropertyOp24
 70
     1
102
RTVSPropertyOp25
 70
     1
102
RTVSPropertyOp26
 70
     1
102
RTVSPropertyOp27
 70
     1
102
RTVSPropertyOp28
 70
     1
102
RTVSPropertyOp29
 70
     1
102
RTVSPropertyOp30
 70
     1
102
RTVSPropertyOp31
 70
     1
102
RTVSPropertyOp32
 70
     1
  0
XRECORD
  5
1CA
102
{ACAD_REACTORS
330
1C9
102
}
330
1C9
100
AcDbXrecord
280
     1
102
RTVSPropertyOp0
 70
     1
102
RTVSPropertyOp1
 70
     1
102
RTVSPropertyOp2
 70
     1
102
RTVSPropertyOp3
 70
     1
102
RTVSPropertyOp4
 70
     1
102
RTVSPropertyOp5
 70
     1
102
RTVSPropertyOp6
 70
     1
102
RTVSPropertyOp7
 70
     1
102
RTVSPropertyOp8
 70
     1
102
RTVSPropertyOp9
 70
     1
102
RTVSPropertyOp10
 70
     1
102
RTVSPropertyOp11
 70
     1
102
RTVSPropertyOp12
 70
     1
102
RTVSPropertyOp13
 70
     1
102
RTVSPropertyOp14
 70
     1
102
RTVSPropertyOp15
 70
     1
102
RTVSPropertyOp16
 70
     1
102
RTVSPropertyOp17
 70
     1
102
RTVSPropertyOp18
 70
     1
102
RTVSPropertyOp19
 70
     1
102
RTVSPropertyOp20
 70
     1
102
RTVSPropertyOp21
 70
     1
102
RTVSPropertyOp22
 70
     1
102
RTVSPropertyOp23
 70
     1
102
RTVSPropertyOp24
 70
     1
102
RTVSPropertyOp25
 70
     1
102
RTVSPropertyOp26
 70
     1
102
RTVSPropertyOp27
 70
     1
102
RTVSPropertyOp28
 70
     1
102
RTVSPropertyOp29
 70
     1
102
RTVSPropertyOp30
 70
     1
102
RTVSPropertyOp31
 70
     1
102
RTVSPropertyOp32
 70
     1
  0
XRECORD
  5
1CE
102
{ACAD_REACTORS
330
1CD
102
}
330
1CD
100
AcDbXrecord
280
     1
102
RTVSPropertyOp0
 70
     1
102
RTVSPropertyOp1
 70
     1
102
RTVSPropertyOp2
 70
     1
102
RTVSPropertyOp3
 70
     1
102
RTVSPropertyOp4
 70
     1
102
RTVSPropertyOp5
 70
     1
102
RTVSPropertyOp6
 70
     1
102
RTVSPropertyOp7
 70
     1
102
RTVSPropertyOp8
 70
     1
102
RTVSPropertyOp9
 70
     1
102
RTVSPropertyOp10
 70
     1
102
RTVSPropertyOp11
 70
     1
102
RTVSPropertyOp12
 70
     1
102
RTVSPropertyOp13
 70
     1
102
RTVSPropertyOp14
 70
     1
102
RTVSPropertyOp15
 70
     1
102
RTVSPropertyOp16
 70
     1
102
RTVSPropertyOp17
 70
     1
102
RTVSPropertyOp18
 70
     1
102
RTVSPropertyOp19
 70
     1
102
RTVSPropertyOp20
 70
     1
102
RTVSPropertyOp21
 70
     1
102
RTVSPropertyOp22
 70
     1
102
RTVSPropertyOp23
 70
     1
102
RTVSPropertyOp24
 70
     1
102
RTVSPropertyOp25
 70
     1
102
RTVSPropertyOp26
 70
     1
102
RTVSPropertyOp27
 70
     1
102
RTVSPropertyOp28
 70
     1
102
RTVSPropertyOp29
 70
     1
102
RTVSPropertyOp30
 70
     1
102
RTVSPropertyOp31
 70
     1
102
RTVSPropertyOp32
 70
     1
  0
XRECORD
  5
1D6
102
{ACAD_REACTORS
330
1D5
102
}
330
1D5
100
AcDbXrecord
280
     1
102
RTVSPropertyOp0
 70
     1
102
RTVSPropertyOp1
 70
     1
102
RTVSPropertyOp2
 70
     1
102
RTVSPropertyOp3
 70
     1
102
RTVSPropertyOp4
 70
     1
102
RTVSPropertyOp5
 70
     1
102
RTVSPropertyOp6
 70
     1
102
RTVSPropertyOp7
 70
     1
102
RTVSPropertyOp8
 70
     1
102
RTVSPropertyOp9
 70
     1
102
RTVSPropertyOp10
 70
     1
102
RTVSPropertyOp11
 70
     1
102
RTVSPropertyOp12
 70
     1
102
RTVSPropertyOp13
 70
     1
102
RTVSPropertyOp14
 70
     1
102
RTVSPropertyOp15
 70
     1
102
RTVSPropertyOp16
 70
     1
102
RTVSPropertyOp17
 70
     1
102
RTVSPropertyOp18
 70
     1
102
RTVSPropertyOp19
 70
     1
102
RTVSPropertyOp20
 70
     1
102
RTVSPropertyOp21
 70
     1
102
RTVSPropertyOp22
 70
     1
102
RTVSPropertyOp23
 70
     1
102
RTVSPropertyOp24
 70
     1
102
RTVSPropertyOp25
 70
     1
102
RTVSPropertyOp26
 70
     1
102
RTVSPropertyOp27
 70
     1
102
RTVSPropertyOp28
 70
     1
102
RTVSPropertyOp29
 70
     1
102
RTVSPropertyOp30
 70
     1
102
RTVSPropertyOp31
 70
     1
102
RTVSPropertyOp32
 70
     1
  0
XRECORD
  5
1DE
102
{ACAD_REACTORS
330
1DD
102
}
330
1DD
100
AcDbXrecord
280
     1
102
RTVSPropertyOp0
 70
     1
102
RTVSPropertyOp1
 70
     1
102
RTVSPropertyOp2
 70
     1
102
RTVSPropertyOp3
 70
     1
102
RTVSPropertyOp4
 70
     1
102
RTVSPropertyOp5
 70
     1
102
RTVSPropertyOp6
 70
     1
102
RTVSPropertyOp7
 70
     1
102
RTVSPropertyOp8
 70
     1
102
RTVSPropertyOp9
 70
     1
102
RTVSPropertyOp10
 70
     1
102
RTVSPropertyOp11
 70
     1
102
RTVSPropertyOp12
 70
     1
102
RTVSPropertyOp13
 70
     1
102
RTVSPropertyOp14
 70
     1
102
RTVSPropertyOp15
 70
     1
102
RTVSPropertyOp16
 70
     1
102
RTVSPropertyOp17
 70
     1
102
RTVSPropertyOp18
 70
     1
102
RTVSPropertyOp19
 70
     1
102
RTVSPropertyOp20
 70
     1
102
RTVSPropertyOp21
 70
     1
102
RTVSPropertyOp22
 70
     1
102
RTVSPropertyOp23
 70
     1
102
RTVSPropertyOp24
 70
     1
102
RTVSPropertyOp25
 70
     1
102
RTVSPropertyOp26
 70
     1
102
RTVSPropertyOp27
 70
     1
102
RTVSPropertyOp28
 70
     1
102
RTVSPropertyOp29
 70
     1
102
RTVSPropertyOp30
 70
     1
102
RTVSPropertyOp31
 70
     1
102
RTVSPropertyOp32
 70
     1
  0
XRECORD
  5
1D2
102
{ACAD_REACTORS
330
1D1
102
}
330
1D1
100
AcDbXrecord
280
     1
102
RTVSPropertyOp0
 70
     1
102
RTVSPropertyOp1
 70
     1
102
RTVSPropertyOp2
 70
     1
102
RTVSPropertyOp3
 70
     1
102
RTVSPropertyOp4
 70
     1
102
RTVSPropertyOp5
 70
     1
102
RTVSPropertyOp6
 70
     1
102
RTVSPropertyOp7
 70
     1
102
RTVSPropertyOp8
 70
     1
102
RTVSPropertyOp9
 70
     1
102
RTVSPropertyOp10
 70
     1
102
RTVSPropertyOp11
 70
     1
102
RTVSPropertyOp12
 70
     1
102
RTVSPropertyOp13
 70
     1
102
RTVSPropertyOp14
 70
     1
102
RTVSPropertyOp15
 70
     1
102
RTVSPropertyOp16
 70
     1
102
RTVSPropertyOp17
 70
     1
102
RTVSPropertyOp18
 70
     1
102
RTVSPropertyOp19
 70
     1
102
RTVSPropertyOp20
 70
     1
102
RTVSPropertyOp21
 70
     1
102
RTVSPropertyOp22
 70
     1
102
RTVSPropertyOp23
 70
     1
102
RTVSPropertyOp24
 70
     1
102
RTVSPropertyOp25
 70
     1
102
RTVSPropertyOp26
 70
     1
102
RTVSPropertyOp27
 70
     1
102
RTVSPropertyOp28
 70
     1
102
RTVSPropertyOp29
 70
     1
102
RTVSPropertyOp30
 70
     1
102
RTVSPropertyOp31
 70
     1
102
RTVSPropertyOp32
 70
     1
  0
XRECORD
  5
1D4
102
{ACAD_REACTORS
330
1D3
102
}
330
1D3
100
AcDbXrecord
280
     1
102
RTVSPropertyOp0
 70
     1
102
RTVSPropertyOp1
 70
     1
102
RTVSPropertyOp2
 70
     1
102
RTVSPropertyOp3
 70
     1
102
RTVSPropertyOp4
 70
     1
102
RTVSPropertyOp5
 70
     1
102
RTVSPropertyOp6
 70
     1
102
RTVSPropertyOp7
 70
     1
102
RTVSPropertyOp8
 70
     1
102
RTVSPropertyOp9
 70
     1
102
RTVSPropertyOp10
 70
     1
102
RTVSPropertyOp11
 70
     1
102
RTVSPropertyOp12
 70
     1
102
RTVSPropertyOp13
 70
     1
102
RTVSPropertyOp14
 70
     1
102
RTVSPropertyOp15
 70
     1
102
RTVSPropertyOp16
 70
     1
102
RTVSPropertyOp17
 70
     1
102
RTVSPropertyOp18
 70
     1
102
RTVSPropertyOp19
 70
     1
102
RTVSPropertyOp20
 70
     1
102
RTVSPropertyOp21
 70
     1
102
RTVSPropertyOp22
 70
     1
102
RTVSPropertyOp23
 70
     1
102
RTVSPropertyOp24
 70
     1
102
RTVSPropertyOp25
 70
     1
102
RTVSPropertyOp26
 70
     1
102
RTVSPropertyOp27
 70
     1
102
RTVSPropertyOp28
 70
     1
102
RTVSPropertyOp29
 70
     1
102
RTVSPropertyOp30
 70
     1
102
RTVSPropertyOp31
 70
     1
102
RTVSPropertyOp32
 70
     1
  0
XRECORD
  5
1DC
102
{ACAD_REACTORS
330
1DB
102
}
330
1DB
100
AcDbXrecord
280
     1
102
RTVSPropertyOp0
 70
     1
102
RTVSPropertyOp1
 70
     1
102
RTVSPropertyOp2
 70
     1
102
RTVSPropertyOp3
 70
     1
102
RTVSPropertyOp4
 70
     1
102
RTVSPropertyOp5
 70
     1
102
RTVSPropertyOp6
 70
     1
102
RTVSPropertyOp7
 70
     1
102
RTVSPropertyOp8
 70
     1
102
RTVSPropertyOp9
 70
     1
102
RTVSPropertyOp10
 70
     1
102
RTVSPropertyOp11
 70
     1
102
RTVSPropertyOp12
 70
     1
102
RTVSPropertyOp13
 70
     1
102
RTVSPropertyOp14
 70
     1
102
RTVSPropertyOp15
 70
     1
102
RTVSPropertyOp16
 70
     1
102
RTVSPropertyOp17
 70
     1
102
RTVSPropertyOp18
 70
     1
102
RTVSPropertyOp19
 70
     1
102
RTVSPropertyOp20
 70
     1
102
RTVSPropertyOp21
 70
     1
102
RTVSPropertyOp22
 70
     1
102
RTVSPropertyOp23
 70
     1
102
RTVSPropertyOp24
 70
     1
102
RTVSPropertyOp25
 70
     1
102
RTVSPropertyOp26
 70
     1
102
RTVSPropertyOp27
 70
     1
102
RTVSPropertyOp28
 70
     1
102
RTVSPropertyOp29
 70
     1
102
RTVSPropertyOp30
 70
     1
102
RTVSPropertyOp31
 70
     1
102
RTVSPropertyOp32
 70
     1
  0
XRECORD
  5
1C0
102
{ACAD_REACTORS
330
1BF
102
}
330
1BF
100
AcDbXrecord
280
     1
102
RTVSPropertyOp0
 70
     1
102
RTVSPropertyOp1
 70
     1
102
RTVSPropertyOp2
 70
     1
102
RTVSPropertyOp3
 70
     1
102
RTVSPropertyOp4
 70
     1
102
RTVSPropertyOp5
 70
     1
102
RTVSPropertyOp6
 70
     1
102
RTVSPropertyOp7
 70
     1
102
RTVSPropertyOp8
 70
     1
102
RTVSPropertyOp9
 70
     1
102
RTVSPropertyOp10
 70
     1
102
RTVSPropertyOp11
 70
     1
102
RTVSPropertyOp12
 70
     1
102
RTVSPropertyOp13
 70
     1
102
RTVSPropertyOp14
 70
     1
102
RTVSPropertyOp15
 70
     1
102
RTVSPropertyOp16
 70
     1
102
RTVSPropertyOp17
 70
     1
102
RTVSPropertyOp18
 70
     1
102
RTVSPropertyOp19
 70
     1
102
RTVSPropertyOp20
 70
     1
102
RTVSPropertyOp21
 70
     1
102
RTVSPropertyOp22
 70
     1
102
RTVSPropertyOp23
 70
     1
102
RTVSPropertyOp24
 70
     1
102
RTVSPropertyOp25
 70
     1
102
RTVSPropertyOp26
 70
     1
102
RTVSPropertyOp27
 70
     1
102
RTVSPropertyOp28
 70
     1
102
RTVSPropertyOp29
 70
     1
102
RTVSPropertyOp30
 70
     1
102
RTVSPropertyOp31
 70
     1
102
RTVSPropertyOp32
 70
     1
  0
XRECORD
  5
1C2
102
{ACAD_REACTORS
330
1C1
102
}
330
1C1
100
AcDbXrecord
280
     1
102
RTVSPropertyOp0
 70
     1
102
RTVSPropertyOp1
 70
     1
102
RTVSPropertyOp2
 70
     1
102
RTVSPropertyOp3
 70
     1
102
RTVSPropertyOp4
 70
     1
102
RTVSPropertyOp5
 70
     1
102
RTVSPropertyOp6
 70
     1
102
RTVSPropertyOp7
 70
     1
102
RTVSPropertyOp8
 70
     1
102
RTVSPropertyOp9
 70
     1
102
RTVSPropertyOp10
 70
     1
102
RTVSPropertyOp11
 70
     1
102
RTVSPropertyOp12
 70
     1
102
RTVSPropertyOp13
 70
     1
102
RTVSPropertyOp14
 70
     1
102
RTVSPropertyOp15
 70
     1
102
RTVSPropertyOp16
 70
     1
102
RTVSPropertyOp17
 70
     1
102
RTVSPropertyOp18
 70
     1
102
RTVSPropertyOp19
 70
     1
102
RTVSPropertyOp20
 70
     1
102
RTVSPropertyOp21
 70
     1
102
RTVSPropertyOp22
 70
     1
102
RTVSPropertyOp23
 70
     1
102
RTVSPropertyOp24
 70
     1
102
RTVSPropertyOp25
 70
     1
102
RTVSPropertyOp26
 70
     1
102
RTVSPropertyOp27
 70
     1
102
RTVSPropertyOp28
 70
     1
102
RTVSPropertyOp29
 70
     1
102
RTVSPropertyOp30
 70
     1
102
RTVSPropertyOp31
 70
     1
102
RTVSPropertyOp32
 70
     1
  0
XRECORD
  5
1C4
102
{ACAD_REACTORS
330
1C3
102
}
330
1C3
100
AcDbXrecord
280
     1
102
RTVSPropertyOp0
 70
     1
102
RTVSPropertyOp1
 70
     1
102
RTVSPropertyOp2
 70
     1
102
RTVSPropertyOp3
 70
     1
102
RTVSPropertyOp4
 70
     1
102
RTVSPropertyOp5
 70
     1
102
RTVSPropertyOp6
 70
     1
102
RTVSPropertyOp7
 70
     1
102
RTVSPropertyOp8
 70
     1
102
RTVSPropertyOp9
 70
     1
102
RTVSPropertyOp10
 70
     1
102
RTVSPropertyOp11
 70
     1
102
RTVSPropertyOp12
 70
     1
102
RTVSPropertyOp13
 70
     1
102
RTVSPropertyOp14
 70
     1
102
RTVSPropertyOp15
 70
     1
102
RTVSPropertyOp16
 70
     1
102
RTVSPropertyOp17
 70
     1
102
RTVSPropertyOp18
 70
     1
102
RTVSPropertyOp19
 70
     1
102
RTVSPropertyOp20
 70
     1
102
RTVSPropertyOp21
 70
     1
102
RTVSPropertyOp22
 70
     1
102
RTVSPropertyOp23
 70
     1
102
RTVSPropertyOp24
 70
     1
102
RTVSPropertyOp25
 70
     1
102
RTVSPropertyOp26
 70
     1
102
RTVSPropertyOp27
 70
     1
102
RTVSPropertyOp28
 70
     1
102
RTVSPropertyOp29
 70
     1
102
RTVSPropertyOp30
 70
     1
102
RTVSPropertyOp31
 70
     1
102
RTVSPropertyOp32
 70
     1
  0
XRECORD
  5
1C6
102
{ACAD_REACTORS
330
1C5
102
}
330
1C5
100
AcDbXrecord
280
     1
102
RTVSPropertyOp0
 70
     1
102
RTVSPropertyOp1
 70
     1
102
RTVSPropertyOp2
 70
     1
102
RTVSPropertyOp3
 70
     1
102
RTVSPropertyOp4
 70
     1
102
RTVSPropertyOp5
 70
     1
102
RTVSPropertyOp6
 70
     1
102
RTVSPropertyOp7
 70
     1
102
RTVSPropertyOp8
 70
     1
102
RTVSPropertyOp9
 70
     1
102
RTVSPropertyOp10
 70
     1
102
RTVSPropertyOp11
 70
     1
102
RTVSPropertyOp12
 70
     1
102
RTVSPropertyOp13
 70
     1
102
RTVSPropertyOp14
 70
     1
102
RTVSPropertyOp15
 70
     1
102
RTVSPropertyOp16
 70
     1
102
RTVSPropertyOp17
 70
     1
102
RTVSPropertyOp18
 70
     1
102
RTVSPropertyOp19
 70
     1
102
RTVSPropertyOp20
 70
     1
102
RTVSPropertyOp21
 70
     1
102
RTVSPropertyOp22
 70
     1
102
RTVSPropertyOp23
 70
     1
102
RTVSPropertyOp24
 70
     1
102
RTVSPropertyOp25
 70
     1
102
RTVSPropertyOp26
 70
     1
102
RTVSPropertyOp27
 70
     1
102
RTVSPropertyOp28
 70
     1
102
RTVSPropertyOp29
 70
     1
102
RTVSPropertyOp30
 70
     1
102
RTVSPropertyOp31
 70
     1
102
RTVSPropertyOp32
 70
     1
  0
XRECORD
  5
1DA
102
{ACAD_REACTORS
330
1D9
102
}
330
1D9
100
AcDbXrecord
280
     1
102
RTVSPropertyOp0
 70
     1
102
RTVSPropertyOp1
 70
     1
102
RTVSPropertyOp2
 70
     1
102
RTVSPropertyOp3
 70
     1
102
RTVSPropertyOp4
 70
     1
102
RTVSPropertyOp5
 70
     1
102
RTVSPropertyOp6
 70
     1
102
RTVSPropertyOp7
 70
     1
102
RTVSPropertyOp8
 70
     1
102
RTVSPropertyOp9
 70
     1
102
RTVSPropertyOp10
 70
     1
102
RTVSPropertyOp11
 70
     1
102
RTVSPropertyOp12
 70
     1
102
RTVSPropertyOp13
 70
     1
102
RTVSPropertyOp14
 70
     1
102
RTVSPropertyOp15
 70
     1
102
RTVSPropertyOp16
 70
     1
102
RTVSPropertyOp17
 70
     1
102
RTVSPropertyOp18
 70
     1
102
RTVSPropertyOp19
 70
     1
102
RTVSPropertyOp20
 70
     1
102
RTVSPropertyOp21
 70
     1
102
RTVSPropertyOp22
 70
     1
102
RTVSPropertyOp23
 70
     1
102
RTVSPropertyOp24
 70
     1
102
RTVSPropertyOp25
 70
     1
102
RTVSPropertyOp26
 70
     1
102
RTVSPropertyOp27
 70
     1
102
RTVSPropertyOp28
 70
     1
102
RTVSPropertyOp29
 70
     1
102
RTVSPropertyOp30
 70
     1
102
RTVSPropertyOp31
 70
     1
102
RTVSPropertyOp32
 70
     1
  0
XRECORD
  5
1D0
102
{ACAD_REACTORS
330
1CF
102
}
330
1CF
100
AcDbXrecord
280
     1
102
RTVSPropertyOp0
 70
     1
102
RTVSPropertyOp1
 70
     1
102
RTVSPropertyOp2
 70
     1
102
RTVSPropertyOp3
 70
     1
102
RTVSPropertyOp4
 70
     1
102
RTVSPropertyOp5
 70
     1
102
RTVSPropertyOp6
 70
     1
102
RTVSPropertyOp7
 70
     1
102
RTVSPropertyOp8
 70
     1
102
RTVSPropertyOp9
 70
     1
102
RTVSPropertyOp10
 70
     1
102
RTVSPropertyOp11
 70
     1
102
RTVSPropertyOp12
 70
     1
102
RTVSPropertyOp13
 70
     1
102
RTVSPropertyOp14
 70
     1
102
RTVSPropertyOp15
 70
     1
102
RTVSPropertyOp16
 70
     1
102
RTVSPropertyOp17
 70
     1
102
RTVSPropertyOp18
 70
     1
102
RTVSPropertyOp19
 70
     1
102
RTVSPropertyOp20
 70
     1
102
RTVSPropertyOp21
 70
     1
102
RTVSPropertyOp22
 70
     1
102
RTVSPropertyOp23
 70
     1
102
RTVSPropertyOp24
 70
     1
102
RTVSPropertyOp25
 70
     1
102
RTVSPropertyOp26
 70
     1
102
RTVSPropertyOp27
 70
     1
102
RTVSPropertyOp28
 70
     1
102
RTVSPropertyOp29
 70
     1
102
RTVSPropertyOp30
 70
     1
102
RTVSPropertyOp31
 70
     1
102
RTVSPropertyOp32
 70
     1
  0
XRECORD
  5
1D8
102
{ACAD_REACTORS
330
1D7
102
}
330
1D7
100
AcDbXrecord
280
     1
102
RTVSPropertyOp0
 70
     1
102
RTVSPropertyOp1
 70
     1
102
RTVSPropertyOp2
 70
     1
102
RTVSPropertyOp3
 70
     1
102
RTVSPropertyOp4
 70
     1
102
RTVSPropertyOp5
 70
     1
102
RTVSPropertyOp6
 70
     1
102
RTVSPropertyOp7
 70
     1
102
RTVSPropertyOp8
 70
     1
102
RTVSPropertyOp9
 70
     1
102
RTVSPropertyOp10
 70
     1
102
RTVSPropertyOp11
 70
     1
102
RTVSPropertyOp12
 70
     1
102
RTVSPropertyOp13
 70
     1
102
RTVSPropertyOp14
 70
     1
102
RTVSPropertyOp15
 70
     1
102
RTVSPropertyOp16
 70
     1
102
RTVSPropertyOp17
 70
     1
102
RTVSPropertyOp18
 70
     1
102
RTVSPropertyOp19
 70
     1
102
RTVSPropertyOp20
 70
     1
102
RTVSPropertyOp21
 70
     1
102
RTVSPropertyOp22
 70
     1
102
RTVSPropertyOp23
 70
     1
102
RTVSPropertyOp24
 70
     1
102
RTVSPropertyOp25
 70
     1
102
RTVSPropertyOp26
 70
     1
102
RTVSPropertyOp27
 70
     1
102
RTVSPropertyOp28
 70
     1
102
RTVSPropertyOp29
 70
     1
102
RTVSPropertyOp30
 70
     1
102
RTVSPropertyOp31
 70
     1
102
RTVSPropertyOp32
 70
     1
  0
ENDSEC
  0
EOF
